<?xml version="1.0" encoding="utf-8" standalone="no"?>
<!DOCTYPE svg PUBLIC "-//W3C//DTD SVG 1.1//EN"
  "http://www.w3.org/Graphics/SVG/1.1/DTD/svg11.dtd">
<svg height="324pt" version="1.1" viewBox="0 0 432 324" width="432pt" xmlns="http://www.w3.org/2000/svg" xmlns:xlink="http://www.w3.org/1999/xlink">
 <metadata>
  <rdf:RDF xmlns:cc="http://creativecommons.org/ns#" xmlns:dc="http://purl.org/dc/elements/1.1/" xmlns:rdf="http://www.w3.org/1999/02/22-rdf-syntax-ns#">
   <cc:Work>
    <dc:type rdf:resource="http://purl.org/dc/dcmitype/StillImage"/>
    <dc:date>2023-01-08T20:14:10.330172</dc:date>
    <dc:format>image/svg+xml</dc:format>
    <dc:creator>
     <cc:Agent>
      <dc:title>Matplotlib v3.4.1, https://matplotlib.org/</dc:title>
     </cc:Agent>
    </dc:creator>
   </cc:Work>
  </rdf:RDF>
 </metadata>
 <defs>
  <style type="text/css">*{stroke-linecap:butt;stroke-linejoin:round;}</style>
 </defs>
 <g id="figure_1">
  <g id="patch_1">
   <path d="M 0 324 
L 432 324 
L 432 0 
L 0 0 
z
" style="fill:#ffffff;"/>
  </g>
  <g id="axes_1">
   <g id="patch_2">
    <path d="M 54 288.36 
L 388.8 288.36 
L 388.8 38.88 
L 54 38.88 
z
" style="fill:#ffffff;"/>
   </g>
   <g id="matplotlib.axis_1">
    <g id="xtick_1">
     <g id="line2d_1">
      <path clip-path="url(#pc251d7190e)" d="M 54 288.36 
L 54 38.88 
" style="fill:none;stroke:#b0b0b0;stroke-linecap:square;stroke-width:0.8;"/>
     </g>
     <g id="line2d_2">
      <defs>
       <path d="M 0 0 
L 0 3.5 
" id="m5c280de72d" style="stroke:#000000;stroke-width:0.8;"/>
      </defs>
      <g>
       <use style="stroke:#000000;stroke-width:0.8;" x="54" xlink:href="#m5c280de72d" y="288.36"/>
      </g>
     </g>
     <g id="text_1">
      <!-- −6 -->
      <g transform="translate(46.628906 302.958438)scale(0.1 -0.1)">
       <defs>
        <path d="M 678 2272 
L 4684 2272 
L 4684 1741 
L 678 1741 
L 678 2272 
z
" id="DejaVuSans-2212" transform="scale(0.015625)"/>
        <path d="M 2113 2584 
Q 1688 2584 1439 2293 
Q 1191 2003 1191 1497 
Q 1191 994 1439 701 
Q 1688 409 2113 409 
Q 2538 409 2786 701 
Q 3034 994 3034 1497 
Q 3034 2003 2786 2293 
Q 2538 2584 2113 2584 
z
M 3366 4563 
L 3366 3988 
Q 3128 4100 2886 4159 
Q 2644 4219 2406 4219 
Q 1781 4219 1451 3797 
Q 1122 3375 1075 2522 
Q 1259 2794 1537 2939 
Q 1816 3084 2150 3084 
Q 2853 3084 3261 2657 
Q 3669 2231 3669 1497 
Q 3669 778 3244 343 
Q 2819 -91 2113 -91 
Q 1303 -91 875 529 
Q 447 1150 447 2328 
Q 447 3434 972 4092 
Q 1497 4750 2381 4750 
Q 2619 4750 2861 4703 
Q 3103 4656 3366 4563 
z
" id="DejaVuSans-36" transform="scale(0.015625)"/>
       </defs>
       <use xlink:href="#DejaVuSans-2212"/>
       <use x="83.789062" xlink:href="#DejaVuSans-36"/>
      </g>
     </g>
    </g>
    <g id="xtick_2">
     <g id="line2d_3">
      <path clip-path="url(#pc251d7190e)" d="M 74.925 288.36 
L 74.925 38.88 
" style="fill:none;stroke:#b0b0b0;stroke-linecap:square;stroke-width:0.8;"/>
     </g>
     <g id="line2d_4">
      <g>
       <use style="stroke:#000000;stroke-width:0.8;" x="74.925" xlink:href="#m5c280de72d" y="288.36"/>
      </g>
     </g>
     <g id="text_2">
      <!-- −5 -->
      <g transform="translate(67.553906 302.958438)scale(0.1 -0.1)">
       <defs>
        <path d="M 691 4666 
L 3169 4666 
L 3169 4134 
L 1269 4134 
L 1269 2991 
Q 1406 3038 1543 3061 
Q 1681 3084 1819 3084 
Q 2600 3084 3056 2656 
Q 3513 2228 3513 1497 
Q 3513 744 3044 326 
Q 2575 -91 1722 -91 
Q 1428 -91 1123 -41 
Q 819 9 494 109 
L 494 744 
Q 775 591 1075 516 
Q 1375 441 1709 441 
Q 2250 441 2565 725 
Q 2881 1009 2881 1497 
Q 2881 1984 2565 2268 
Q 2250 2553 1709 2553 
Q 1456 2553 1204 2497 
Q 953 2441 691 2322 
L 691 4666 
z
" id="DejaVuSans-35" transform="scale(0.015625)"/>
       </defs>
       <use xlink:href="#DejaVuSans-2212"/>
       <use x="83.789062" xlink:href="#DejaVuSans-35"/>
      </g>
     </g>
    </g>
    <g id="xtick_3">
     <g id="line2d_5">
      <path clip-path="url(#pc251d7190e)" d="M 95.85 288.36 
L 95.85 38.88 
" style="fill:none;stroke:#b0b0b0;stroke-linecap:square;stroke-width:0.8;"/>
     </g>
     <g id="line2d_6">
      <g>
       <use style="stroke:#000000;stroke-width:0.8;" x="95.85" xlink:href="#m5c280de72d" y="288.36"/>
      </g>
     </g>
     <g id="text_3">
      <!-- −4 -->
      <g transform="translate(88.478906 302.958438)scale(0.1 -0.1)">
       <defs>
        <path d="M 2419 4116 
L 825 1625 
L 2419 1625 
L 2419 4116 
z
M 2253 4666 
L 3047 4666 
L 3047 1625 
L 3713 1625 
L 3713 1100 
L 3047 1100 
L 3047 0 
L 2419 0 
L 2419 1100 
L 313 1100 
L 313 1709 
L 2253 4666 
z
" id="DejaVuSans-34" transform="scale(0.015625)"/>
       </defs>
       <use xlink:href="#DejaVuSans-2212"/>
       <use x="83.789062" xlink:href="#DejaVuSans-34"/>
      </g>
     </g>
    </g>
    <g id="xtick_4">
     <g id="line2d_7">
      <path clip-path="url(#pc251d7190e)" d="M 116.775 288.36 
L 116.775 38.88 
" style="fill:none;stroke:#b0b0b0;stroke-linecap:square;stroke-width:0.8;"/>
     </g>
     <g id="line2d_8">
      <g>
       <use style="stroke:#000000;stroke-width:0.8;" x="116.775" xlink:href="#m5c280de72d" y="288.36"/>
      </g>
     </g>
     <g id="text_4">
      <!-- −3 -->
      <g transform="translate(109.403906 302.958438)scale(0.1 -0.1)">
       <defs>
        <path d="M 2597 2516 
Q 3050 2419 3304 2112 
Q 3559 1806 3559 1356 
Q 3559 666 3084 287 
Q 2609 -91 1734 -91 
Q 1441 -91 1130 -33 
Q 819 25 488 141 
L 488 750 
Q 750 597 1062 519 
Q 1375 441 1716 441 
Q 2309 441 2620 675 
Q 2931 909 2931 1356 
Q 2931 1769 2642 2001 
Q 2353 2234 1838 2234 
L 1294 2234 
L 1294 2753 
L 1863 2753 
Q 2328 2753 2575 2939 
Q 2822 3125 2822 3475 
Q 2822 3834 2567 4026 
Q 2313 4219 1838 4219 
Q 1578 4219 1281 4162 
Q 984 4106 628 3988 
L 628 4550 
Q 988 4650 1302 4700 
Q 1616 4750 1894 4750 
Q 2613 4750 3031 4423 
Q 3450 4097 3450 3541 
Q 3450 3153 3228 2886 
Q 3006 2619 2597 2516 
z
" id="DejaVuSans-33" transform="scale(0.015625)"/>
       </defs>
       <use xlink:href="#DejaVuSans-2212"/>
       <use x="83.789062" xlink:href="#DejaVuSans-33"/>
      </g>
     </g>
    </g>
    <g id="xtick_5">
     <g id="line2d_9">
      <path clip-path="url(#pc251d7190e)" d="M 137.7 288.36 
L 137.7 38.88 
" style="fill:none;stroke:#b0b0b0;stroke-linecap:square;stroke-width:0.8;"/>
     </g>
     <g id="line2d_10">
      <g>
       <use style="stroke:#000000;stroke-width:0.8;" x="137.7" xlink:href="#m5c280de72d" y="288.36"/>
      </g>
     </g>
     <g id="text_5">
      <!-- −2 -->
      <g transform="translate(130.328906 302.958438)scale(0.1 -0.1)">
       <defs>
        <path d="M 1228 531 
L 3431 531 
L 3431 0 
L 469 0 
L 469 531 
Q 828 903 1448 1529 
Q 2069 2156 2228 2338 
Q 2531 2678 2651 2914 
Q 2772 3150 2772 3378 
Q 2772 3750 2511 3984 
Q 2250 4219 1831 4219 
Q 1534 4219 1204 4116 
Q 875 4013 500 3803 
L 500 4441 
Q 881 4594 1212 4672 
Q 1544 4750 1819 4750 
Q 2544 4750 2975 4387 
Q 3406 4025 3406 3419 
Q 3406 3131 3298 2873 
Q 3191 2616 2906 2266 
Q 2828 2175 2409 1742 
Q 1991 1309 1228 531 
z
" id="DejaVuSans-32" transform="scale(0.015625)"/>
       </defs>
       <use xlink:href="#DejaVuSans-2212"/>
       <use x="83.789062" xlink:href="#DejaVuSans-32"/>
      </g>
     </g>
    </g>
    <g id="xtick_6">
     <g id="line2d_11">
      <path clip-path="url(#pc251d7190e)" d="M 158.625 288.36 
L 158.625 38.88 
" style="fill:none;stroke:#b0b0b0;stroke-linecap:square;stroke-width:0.8;"/>
     </g>
     <g id="line2d_12">
      <g>
       <use style="stroke:#000000;stroke-width:0.8;" x="158.625" xlink:href="#m5c280de72d" y="288.36"/>
      </g>
     </g>
     <g id="text_6">
      <!-- −1 -->
      <g transform="translate(151.253906 302.958438)scale(0.1 -0.1)">
       <defs>
        <path d="M 794 531 
L 1825 531 
L 1825 4091 
L 703 3866 
L 703 4441 
L 1819 4666 
L 2450 4666 
L 2450 531 
L 3481 531 
L 3481 0 
L 794 0 
L 794 531 
z
" id="DejaVuSans-31" transform="scale(0.015625)"/>
       </defs>
       <use xlink:href="#DejaVuSans-2212"/>
       <use x="83.789062" xlink:href="#DejaVuSans-31"/>
      </g>
     </g>
    </g>
    <g id="xtick_7">
     <g id="line2d_13">
      <path clip-path="url(#pc251d7190e)" d="M 179.55 288.36 
L 179.55 38.88 
" style="fill:none;stroke:#b0b0b0;stroke-linecap:square;stroke-width:0.8;"/>
     </g>
     <g id="line2d_14">
      <g>
       <use style="stroke:#000000;stroke-width:0.8;" x="179.55" xlink:href="#m5c280de72d" y="288.36"/>
      </g>
     </g>
     <g id="text_7">
      <!-- 0 -->
      <g transform="translate(176.36875 302.958438)scale(0.1 -0.1)">
       <defs>
        <path d="M 2034 4250 
Q 1547 4250 1301 3770 
Q 1056 3291 1056 2328 
Q 1056 1369 1301 889 
Q 1547 409 2034 409 
Q 2525 409 2770 889 
Q 3016 1369 3016 2328 
Q 3016 3291 2770 3770 
Q 2525 4250 2034 4250 
z
M 2034 4750 
Q 2819 4750 3233 4129 
Q 3647 3509 3647 2328 
Q 3647 1150 3233 529 
Q 2819 -91 2034 -91 
Q 1250 -91 836 529 
Q 422 1150 422 2328 
Q 422 3509 836 4129 
Q 1250 4750 2034 4750 
z
" id="DejaVuSans-30" transform="scale(0.015625)"/>
       </defs>
       <use xlink:href="#DejaVuSans-30"/>
      </g>
     </g>
    </g>
    <g id="xtick_8">
     <g id="line2d_15">
      <path clip-path="url(#pc251d7190e)" d="M 200.475 288.36 
L 200.475 38.88 
" style="fill:none;stroke:#b0b0b0;stroke-linecap:square;stroke-width:0.8;"/>
     </g>
     <g id="line2d_16">
      <g>
       <use style="stroke:#000000;stroke-width:0.8;" x="200.475" xlink:href="#m5c280de72d" y="288.36"/>
      </g>
     </g>
     <g id="text_8">
      <!-- 1 -->
      <g transform="translate(197.29375 302.958438)scale(0.1 -0.1)">
       <use xlink:href="#DejaVuSans-31"/>
      </g>
     </g>
    </g>
    <g id="xtick_9">
     <g id="line2d_17">
      <path clip-path="url(#pc251d7190e)" d="M 221.4 288.36 
L 221.4 38.88 
" style="fill:none;stroke:#b0b0b0;stroke-linecap:square;stroke-width:0.8;"/>
     </g>
     <g id="line2d_18">
      <g>
       <use style="stroke:#000000;stroke-width:0.8;" x="221.4" xlink:href="#m5c280de72d" y="288.36"/>
      </g>
     </g>
     <g id="text_9">
      <!-- 2 -->
      <g transform="translate(218.21875 302.958438)scale(0.1 -0.1)">
       <use xlink:href="#DejaVuSans-32"/>
      </g>
     </g>
    </g>
    <g id="xtick_10">
     <g id="line2d_19">
      <path clip-path="url(#pc251d7190e)" d="M 242.325 288.36 
L 242.325 38.88 
" style="fill:none;stroke:#b0b0b0;stroke-linecap:square;stroke-width:0.8;"/>
     </g>
     <g id="line2d_20">
      <g>
       <use style="stroke:#000000;stroke-width:0.8;" x="242.325" xlink:href="#m5c280de72d" y="288.36"/>
      </g>
     </g>
     <g id="text_10">
      <!-- 3 -->
      <g transform="translate(239.14375 302.958438)scale(0.1 -0.1)">
       <use xlink:href="#DejaVuSans-33"/>
      </g>
     </g>
    </g>
    <g id="xtick_11">
     <g id="line2d_21">
      <path clip-path="url(#pc251d7190e)" d="M 263.25 288.36 
L 263.25 38.88 
" style="fill:none;stroke:#b0b0b0;stroke-linecap:square;stroke-width:0.8;"/>
     </g>
     <g id="line2d_22">
      <g>
       <use style="stroke:#000000;stroke-width:0.8;" x="263.25" xlink:href="#m5c280de72d" y="288.36"/>
      </g>
     </g>
     <g id="text_11">
      <!-- 4 -->
      <g transform="translate(260.06875 302.958438)scale(0.1 -0.1)">
       <use xlink:href="#DejaVuSans-34"/>
      </g>
     </g>
    </g>
    <g id="xtick_12">
     <g id="line2d_23">
      <path clip-path="url(#pc251d7190e)" d="M 284.175 288.36 
L 284.175 38.88 
" style="fill:none;stroke:#b0b0b0;stroke-linecap:square;stroke-width:0.8;"/>
     </g>
     <g id="line2d_24">
      <g>
       <use style="stroke:#000000;stroke-width:0.8;" x="284.175" xlink:href="#m5c280de72d" y="288.36"/>
      </g>
     </g>
     <g id="text_12">
      <!-- 5 -->
      <g transform="translate(280.99375 302.958438)scale(0.1 -0.1)">
       <use xlink:href="#DejaVuSans-35"/>
      </g>
     </g>
    </g>
    <g id="xtick_13">
     <g id="line2d_25">
      <path clip-path="url(#pc251d7190e)" d="M 305.1 288.36 
L 305.1 38.88 
" style="fill:none;stroke:#b0b0b0;stroke-linecap:square;stroke-width:0.8;"/>
     </g>
     <g id="line2d_26">
      <g>
       <use style="stroke:#000000;stroke-width:0.8;" x="305.1" xlink:href="#m5c280de72d" y="288.36"/>
      </g>
     </g>
     <g id="text_13">
      <!-- 6 -->
      <g transform="translate(301.91875 302.958438)scale(0.1 -0.1)">
       <use xlink:href="#DejaVuSans-36"/>
      </g>
     </g>
    </g>
    <g id="xtick_14">
     <g id="line2d_27">
      <path clip-path="url(#pc251d7190e)" d="M 326.025 288.36 
L 326.025 38.88 
" style="fill:none;stroke:#b0b0b0;stroke-linecap:square;stroke-width:0.8;"/>
     </g>
     <g id="line2d_28">
      <g>
       <use style="stroke:#000000;stroke-width:0.8;" x="326.025" xlink:href="#m5c280de72d" y="288.36"/>
      </g>
     </g>
     <g id="text_14">
      <!-- 7 -->
      <g transform="translate(322.84375 302.958438)scale(0.1 -0.1)">
       <defs>
        <path d="M 525 4666 
L 3525 4666 
L 3525 4397 
L 1831 0 
L 1172 0 
L 2766 4134 
L 525 4134 
L 525 4666 
z
" id="DejaVuSans-37" transform="scale(0.015625)"/>
       </defs>
       <use xlink:href="#DejaVuSans-37"/>
      </g>
     </g>
    </g>
    <g id="xtick_15">
     <g id="line2d_29">
      <path clip-path="url(#pc251d7190e)" d="M 346.95 288.36 
L 346.95 38.88 
" style="fill:none;stroke:#b0b0b0;stroke-linecap:square;stroke-width:0.8;"/>
     </g>
     <g id="line2d_30">
      <g>
       <use style="stroke:#000000;stroke-width:0.8;" x="346.95" xlink:href="#m5c280de72d" y="288.36"/>
      </g>
     </g>
     <g id="text_15">
      <!-- 8 -->
      <g transform="translate(343.76875 302.958438)scale(0.1 -0.1)">
       <defs>
        <path d="M 2034 2216 
Q 1584 2216 1326 1975 
Q 1069 1734 1069 1313 
Q 1069 891 1326 650 
Q 1584 409 2034 409 
Q 2484 409 2743 651 
Q 3003 894 3003 1313 
Q 3003 1734 2745 1975 
Q 2488 2216 2034 2216 
z
M 1403 2484 
Q 997 2584 770 2862 
Q 544 3141 544 3541 
Q 544 4100 942 4425 
Q 1341 4750 2034 4750 
Q 2731 4750 3128 4425 
Q 3525 4100 3525 3541 
Q 3525 3141 3298 2862 
Q 3072 2584 2669 2484 
Q 3125 2378 3379 2068 
Q 3634 1759 3634 1313 
Q 3634 634 3220 271 
Q 2806 -91 2034 -91 
Q 1263 -91 848 271 
Q 434 634 434 1313 
Q 434 1759 690 2068 
Q 947 2378 1403 2484 
z
M 1172 3481 
Q 1172 3119 1398 2916 
Q 1625 2713 2034 2713 
Q 2441 2713 2670 2916 
Q 2900 3119 2900 3481 
Q 2900 3844 2670 4047 
Q 2441 4250 2034 4250 
Q 1625 4250 1398 4047 
Q 1172 3844 1172 3481 
z
" id="DejaVuSans-38" transform="scale(0.015625)"/>
       </defs>
       <use xlink:href="#DejaVuSans-38"/>
      </g>
     </g>
    </g>
    <g id="xtick_16">
     <g id="line2d_31">
      <path clip-path="url(#pc251d7190e)" d="M 367.875 288.36 
L 367.875 38.88 
" style="fill:none;stroke:#b0b0b0;stroke-linecap:square;stroke-width:0.8;"/>
     </g>
     <g id="line2d_32">
      <g>
       <use style="stroke:#000000;stroke-width:0.8;" x="367.875" xlink:href="#m5c280de72d" y="288.36"/>
      </g>
     </g>
     <g id="text_16">
      <!-- 9 -->
      <g transform="translate(364.69375 302.958438)scale(0.1 -0.1)">
       <defs>
        <path d="M 703 97 
L 703 672 
Q 941 559 1184 500 
Q 1428 441 1663 441 
Q 2288 441 2617 861 
Q 2947 1281 2994 2138 
Q 2813 1869 2534 1725 
Q 2256 1581 1919 1581 
Q 1219 1581 811 2004 
Q 403 2428 403 3163 
Q 403 3881 828 4315 
Q 1253 4750 1959 4750 
Q 2769 4750 3195 4129 
Q 3622 3509 3622 2328 
Q 3622 1225 3098 567 
Q 2575 -91 1691 -91 
Q 1453 -91 1209 -44 
Q 966 3 703 97 
z
M 1959 2075 
Q 2384 2075 2632 2365 
Q 2881 2656 2881 3163 
Q 2881 3666 2632 3958 
Q 2384 4250 1959 4250 
Q 1534 4250 1286 3958 
Q 1038 3666 1038 3163 
Q 1038 2656 1286 2365 
Q 1534 2075 1959 2075 
z
" id="DejaVuSans-39" transform="scale(0.015625)"/>
       </defs>
       <use xlink:href="#DejaVuSans-39"/>
      </g>
     </g>
    </g>
   </g>
   <g id="matplotlib.axis_2">
    <g id="ytick_1">
     <g id="line2d_33">
      <path clip-path="url(#pc251d7190e)" d="M 54 288.36 
L 388.8 288.36 
" style="fill:none;stroke:#b0b0b0;stroke-linecap:square;stroke-width:0.8;"/>
     </g>
     <g id="line2d_34">
      <defs>
       <path d="M 0 0 
L -3.5 0 
" id="m6fd8c3f9ca" style="stroke:#000000;stroke-width:0.8;"/>
      </defs>
      <g>
       <use style="stroke:#000000;stroke-width:0.8;" x="54" xlink:href="#m6fd8c3f9ca" y="288.36"/>
      </g>
     </g>
     <g id="text_17">
      <!-- −5 -->
      <g transform="translate(32.257812 292.159219)scale(0.1 -0.1)">
       <use xlink:href="#DejaVuSans-2212"/>
       <use x="83.789062" xlink:href="#DejaVuSans-35"/>
      </g>
     </g>
    </g>
    <g id="ytick_2">
     <g id="line2d_35">
      <path clip-path="url(#pc251d7190e)" d="M 54 267.57 
L 388.8 267.57 
" style="fill:none;stroke:#b0b0b0;stroke-linecap:square;stroke-width:0.8;"/>
     </g>
     <g id="line2d_36">
      <g>
       <use style="stroke:#000000;stroke-width:0.8;" x="54" xlink:href="#m6fd8c3f9ca" y="267.57"/>
      </g>
     </g>
     <g id="text_18">
      <!-- −4 -->
      <g transform="translate(32.257812 271.369219)scale(0.1 -0.1)">
       <use xlink:href="#DejaVuSans-2212"/>
       <use x="83.789062" xlink:href="#DejaVuSans-34"/>
      </g>
     </g>
    </g>
    <g id="ytick_3">
     <g id="line2d_37">
      <path clip-path="url(#pc251d7190e)" d="M 54 246.78 
L 388.8 246.78 
" style="fill:none;stroke:#b0b0b0;stroke-linecap:square;stroke-width:0.8;"/>
     </g>
     <g id="line2d_38">
      <g>
       <use style="stroke:#000000;stroke-width:0.8;" x="54" xlink:href="#m6fd8c3f9ca" y="246.78"/>
      </g>
     </g>
     <g id="text_19">
      <!-- −3 -->
      <g transform="translate(32.257812 250.579219)scale(0.1 -0.1)">
       <use xlink:href="#DejaVuSans-2212"/>
       <use x="83.789062" xlink:href="#DejaVuSans-33"/>
      </g>
     </g>
    </g>
    <g id="ytick_4">
     <g id="line2d_39">
      <path clip-path="url(#pc251d7190e)" d="M 54 225.99 
L 388.8 225.99 
" style="fill:none;stroke:#b0b0b0;stroke-linecap:square;stroke-width:0.8;"/>
     </g>
     <g id="line2d_40">
      <g>
       <use style="stroke:#000000;stroke-width:0.8;" x="54" xlink:href="#m6fd8c3f9ca" y="225.99"/>
      </g>
     </g>
     <g id="text_20">
      <!-- −2 -->
      <g transform="translate(32.257812 229.789219)scale(0.1 -0.1)">
       <use xlink:href="#DejaVuSans-2212"/>
       <use x="83.789062" xlink:href="#DejaVuSans-32"/>
      </g>
     </g>
    </g>
    <g id="ytick_5">
     <g id="line2d_41">
      <path clip-path="url(#pc251d7190e)" d="M 54 205.2 
L 388.8 205.2 
" style="fill:none;stroke:#b0b0b0;stroke-linecap:square;stroke-width:0.8;"/>
     </g>
     <g id="line2d_42">
      <g>
       <use style="stroke:#000000;stroke-width:0.8;" x="54" xlink:href="#m6fd8c3f9ca" y="205.2"/>
      </g>
     </g>
     <g id="text_21">
      <!-- −1 -->
      <g transform="translate(32.257812 208.999219)scale(0.1 -0.1)">
       <use xlink:href="#DejaVuSans-2212"/>
       <use x="83.789062" xlink:href="#DejaVuSans-31"/>
      </g>
     </g>
    </g>
    <g id="ytick_6">
     <g id="line2d_43">
      <path clip-path="url(#pc251d7190e)" d="M 54 184.41 
L 388.8 184.41 
" style="fill:none;stroke:#b0b0b0;stroke-linecap:square;stroke-width:0.8;"/>
     </g>
     <g id="line2d_44">
      <g>
       <use style="stroke:#000000;stroke-width:0.8;" x="54" xlink:href="#m6fd8c3f9ca" y="184.41"/>
      </g>
     </g>
     <g id="text_22">
      <!-- 0 -->
      <g transform="translate(40.6375 188.209219)scale(0.1 -0.1)">
       <use xlink:href="#DejaVuSans-30"/>
      </g>
     </g>
    </g>
    <g id="ytick_7">
     <g id="line2d_45">
      <path clip-path="url(#pc251d7190e)" d="M 54 163.62 
L 388.8 163.62 
" style="fill:none;stroke:#b0b0b0;stroke-linecap:square;stroke-width:0.8;"/>
     </g>
     <g id="line2d_46">
      <g>
       <use style="stroke:#000000;stroke-width:0.8;" x="54" xlink:href="#m6fd8c3f9ca" y="163.62"/>
      </g>
     </g>
     <g id="text_23">
      <!-- 1 -->
      <g transform="translate(40.6375 167.419219)scale(0.1 -0.1)">
       <use xlink:href="#DejaVuSans-31"/>
      </g>
     </g>
    </g>
    <g id="ytick_8">
     <g id="line2d_47">
      <path clip-path="url(#pc251d7190e)" d="M 54 142.83 
L 388.8 142.83 
" style="fill:none;stroke:#b0b0b0;stroke-linecap:square;stroke-width:0.8;"/>
     </g>
     <g id="line2d_48">
      <g>
       <use style="stroke:#000000;stroke-width:0.8;" x="54" xlink:href="#m6fd8c3f9ca" y="142.83"/>
      </g>
     </g>
     <g id="text_24">
      <!-- 2 -->
      <g transform="translate(40.6375 146.629219)scale(0.1 -0.1)">
       <use xlink:href="#DejaVuSans-32"/>
      </g>
     </g>
    </g>
    <g id="ytick_9">
     <g id="line2d_49">
      <path clip-path="url(#pc251d7190e)" d="M 54 122.04 
L 388.8 122.04 
" style="fill:none;stroke:#b0b0b0;stroke-linecap:square;stroke-width:0.8;"/>
     </g>
     <g id="line2d_50">
      <g>
       <use style="stroke:#000000;stroke-width:0.8;" x="54" xlink:href="#m6fd8c3f9ca" y="122.04"/>
      </g>
     </g>
     <g id="text_25">
      <!-- 3 -->
      <g transform="translate(40.6375 125.839219)scale(0.1 -0.1)">
       <use xlink:href="#DejaVuSans-33"/>
      </g>
     </g>
    </g>
    <g id="ytick_10">
     <g id="line2d_51">
      <path clip-path="url(#pc251d7190e)" d="M 54 101.25 
L 388.8 101.25 
" style="fill:none;stroke:#b0b0b0;stroke-linecap:square;stroke-width:0.8;"/>
     </g>
     <g id="line2d_52">
      <g>
       <use style="stroke:#000000;stroke-width:0.8;" x="54" xlink:href="#m6fd8c3f9ca" y="101.25"/>
      </g>
     </g>
     <g id="text_26">
      <!-- 4 -->
      <g transform="translate(40.6375 105.049219)scale(0.1 -0.1)">
       <use xlink:href="#DejaVuSans-34"/>
      </g>
     </g>
    </g>
    <g id="ytick_11">
     <g id="line2d_53">
      <path clip-path="url(#pc251d7190e)" d="M 54 80.46 
L 388.8 80.46 
" style="fill:none;stroke:#b0b0b0;stroke-linecap:square;stroke-width:0.8;"/>
     </g>
     <g id="line2d_54">
      <g>
       <use style="stroke:#000000;stroke-width:0.8;" x="54" xlink:href="#m6fd8c3f9ca" y="80.46"/>
      </g>
     </g>
     <g id="text_27">
      <!-- 5 -->
      <g transform="translate(40.6375 84.259219)scale(0.1 -0.1)">
       <use xlink:href="#DejaVuSans-35"/>
      </g>
     </g>
    </g>
    <g id="ytick_12">
     <g id="line2d_55">
      <path clip-path="url(#pc251d7190e)" d="M 54 59.67 
L 388.8 59.67 
" style="fill:none;stroke:#b0b0b0;stroke-linecap:square;stroke-width:0.8;"/>
     </g>
     <g id="line2d_56">
      <g>
       <use style="stroke:#000000;stroke-width:0.8;" x="54" xlink:href="#m6fd8c3f9ca" y="59.67"/>
      </g>
     </g>
     <g id="text_28">
      <!-- 6 -->
      <g transform="translate(40.6375 63.469219)scale(0.1 -0.1)">
       <use xlink:href="#DejaVuSans-36"/>
      </g>
     </g>
    </g>
   </g>
   <g id="PathCollection_1">
    <defs>
     <path d="M -3 3 
L 3 -3 
M -3 -3 
L 3 3 
" id="mb7b266e500" style="stroke:#000000;stroke-width:1.5;"/>
    </defs>
    <g clip-path="url(#pc251d7190e)">
     <use style="stroke:#000000;stroke-width:1.5;" x="179.55" xlink:href="#mb7b266e500" y="184.41"/>
    </g>
   </g>
   <g id="PathCollection_2">
    <defs>
     <path d="M 0 3 
C 0.795609 3 1.55874 2.683901 2.12132 2.12132 
C 2.683901 1.55874 3 0.795609 3 0 
C 3 -0.795609 2.683901 -1.55874 2.12132 -2.12132 
C 1.55874 -2.683901 0.795609 -3 0 -3 
C -0.795609 -3 -1.55874 -2.683901 -2.12132 -2.12132 
C -2.683901 -1.55874 -3 -0.795609 -3 0 
C -3 0.795609 -2.683901 1.55874 -2.12132 2.12132 
C -1.55874 2.683901 -0.795609 3 0 3 
z
" id="m23e38d7118" style="stroke:#1f77b4;"/>
    </defs>
    <g clip-path="url(#pc251d7190e)">
     <use style="fill:#1f77b4;stroke:#1f77b4;" x="305.1" xlink:href="#m23e38d7118" y="101.25"/>
     <use style="fill:#1f77b4;stroke:#1f77b4;" x="242.325" xlink:href="#m23e38d7118" y="163.62"/>
     <use style="fill:#1f77b4;stroke:#1f77b4;" x="200.475" xlink:href="#m23e38d7118" y="142.83"/>
     <use style="fill:#1f77b4;stroke:#1f77b4;" x="158.625" xlink:href="#m23e38d7118" y="80.46"/>
     <use style="fill:#1f77b4;stroke:#1f77b4;" x="137.7" xlink:href="#m23e38d7118" y="80.46"/>
     <use style="fill:#1f77b4;stroke:#1f77b4;" x="116.775" xlink:href="#m23e38d7118" y="101.25"/>
     <use style="fill:#1f77b4;stroke:#1f77b4;" x="95.85" xlink:href="#m23e38d7118" y="101.25"/>
     <use style="fill:#1f77b4;stroke:#1f77b4;" x="74.925" xlink:href="#m23e38d7118" y="122.04"/>
     <use style="fill:#1f77b4;stroke:#1f77b4;" x="74.925" xlink:href="#m23e38d7118" y="142.83"/>
     <use style="fill:#1f77b4;stroke:#1f77b4;" x="137.7" xlink:href="#m23e38d7118" y="142.83"/>
     <use style="fill:#1f77b4;stroke:#1f77b4;" x="74.925" xlink:href="#m23e38d7118" y="163.62"/>
     <use style="fill:#1f77b4;stroke:#1f77b4;" x="95.85" xlink:href="#m23e38d7118" y="184.41"/>
     <use style="fill:#1f77b4;stroke:#1f77b4;" x="137.7" xlink:href="#m23e38d7118" y="163.62"/>
     <use style="fill:#1f77b4;stroke:#1f77b4;" x="158.625" xlink:href="#m23e38d7118" y="184.41"/>
     <use style="fill:#1f77b4;stroke:#1f77b4;" x="179.55" xlink:href="#m23e38d7118" y="246.78"/>
     <use style="fill:#1f77b4;stroke:#1f77b4;" x="158.625" xlink:href="#m23e38d7118" y="267.57"/>
     <use style="fill:#1f77b4;stroke:#1f77b4;" x="200.475" xlink:href="#m23e38d7118" y="267.57"/>
     <use style="fill:#1f77b4;stroke:#1f77b4;" x="221.4" xlink:href="#m23e38d7118" y="246.78"/>
     <use style="fill:#1f77b4;stroke:#1f77b4;" x="200.475" xlink:href="#m23e38d7118" y="225.99"/>
     <use style="fill:#1f77b4;stroke:#1f77b4;" x="242.325" xlink:href="#m23e38d7118" y="205.2"/>
     <use style="fill:#1f77b4;stroke:#1f77b4;" x="284.175" xlink:href="#m23e38d7118" y="163.62"/>
    </g>
   </g>
   <g id="PathCollection_3">
    <defs>
     <path d="M 0 3 
C 0.795609 3 1.55874 2.683901 2.12132 2.12132 
C 2.683901 1.55874 3 0.795609 3 0 
C 3 -0.795609 2.683901 -1.55874 2.12132 -2.12132 
C 1.55874 -2.683901 0.795609 -3 0 -3 
C -0.795609 -3 -1.55874 -2.683901 -2.12132 -2.12132 
C -2.683901 -1.55874 -3 -0.795609 -3 0 
C -3 0.795609 -2.683901 1.55874 -2.12132 2.12132 
C -1.55874 2.683901 -0.795609 3 0 3 
z
" id="mda5d2135e7" style="stroke:#d62728;"/>
    </defs>
    <g clip-path="url(#pc251d7190e)">
     <use style="fill:#d62728;stroke:#d62728;" x="367.875" xlink:href="#mda5d2135e7" y="80.46"/>
     <use style="fill:#d62728;stroke:#d62728;" x="305.1" xlink:href="#mda5d2135e7" y="142.83"/>
     <use style="fill:#d62728;stroke:#d62728;" x="263.25" xlink:href="#mda5d2135e7" y="122.04"/>
     <use style="fill:#d62728;stroke:#d62728;" x="221.4" xlink:href="#mda5d2135e7" y="59.67"/>
     <use style="fill:#d62728;stroke:#d62728;" x="200.475" xlink:href="#mda5d2135e7" y="59.67"/>
     <use style="fill:#d62728;stroke:#d62728;" x="179.55" xlink:href="#mda5d2135e7" y="80.46"/>
     <use style="fill:#d62728;stroke:#d62728;" x="158.625" xlink:href="#mda5d2135e7" y="80.46"/>
     <use style="fill:#d62728;stroke:#d62728;" x="137.7" xlink:href="#mda5d2135e7" y="101.25"/>
     <use style="fill:#d62728;stroke:#d62728;" x="137.7" xlink:href="#mda5d2135e7" y="122.04"/>
     <use style="fill:#d62728;stroke:#d62728;" x="200.475" xlink:href="#mda5d2135e7" y="122.04"/>
     <use style="fill:#d62728;stroke:#d62728;" x="137.7" xlink:href="#mda5d2135e7" y="142.83"/>
     <use style="fill:#d62728;stroke:#d62728;" x="158.625" xlink:href="#mda5d2135e7" y="163.62"/>
     <use style="fill:#d62728;stroke:#d62728;" x="200.475" xlink:href="#mda5d2135e7" y="142.83"/>
     <use style="fill:#d62728;stroke:#d62728;" x="221.4" xlink:href="#mda5d2135e7" y="163.62"/>
     <use style="fill:#d62728;stroke:#d62728;" x="242.325" xlink:href="#mda5d2135e7" y="225.99"/>
     <use style="fill:#d62728;stroke:#d62728;" x="221.4" xlink:href="#mda5d2135e7" y="246.78"/>
     <use style="fill:#d62728;stroke:#d62728;" x="263.25" xlink:href="#mda5d2135e7" y="246.78"/>
     <use style="fill:#d62728;stroke:#d62728;" x="284.175" xlink:href="#mda5d2135e7" y="225.99"/>
     <use style="fill:#d62728;stroke:#d62728;" x="263.25" xlink:href="#mda5d2135e7" y="205.2"/>
     <use style="fill:#d62728;stroke:#d62728;" x="305.1" xlink:href="#mda5d2135e7" y="184.41"/>
     <use style="fill:#d62728;stroke:#d62728;" x="346.95" xlink:href="#mda5d2135e7" y="142.83"/>
    </g>
   </g>
   <g id="line2d_57">
    <path clip-path="url(#pc251d7190e)" d="M 54 184.41 
L 388.8 184.41 
" style="fill:none;stroke:#000000;stroke-linecap:square;stroke-width:2;"/>
   </g>
   <g id="line2d_58">
    <path clip-path="url(#pc251d7190e)" d="M 179.55 288.36 
L 179.55 38.88 
" style="fill:none;stroke:#000000;stroke-linecap:square;stroke-width:2;"/>
   </g>
   <g id="line2d_59">
    <path clip-path="url(#pc251d7190e)" d="M 305.1 101.25 
L 242.325 163.62 
" style="fill:none;stroke:#1f77b4;stroke-linecap:square;stroke-width:1.5;"/>
   </g>
   <g id="line2d_60">
    <path clip-path="url(#pc251d7190e)" d="M 242.325 163.62 
L 200.475 142.83 
" style="fill:none;stroke:#1f77b4;stroke-linecap:square;stroke-width:1.5;"/>
   </g>
   <g id="line2d_61">
    <path clip-path="url(#pc251d7190e)" d="M 200.475 142.83 
L 158.625 80.46 
" style="fill:none;stroke:#1f77b4;stroke-linecap:square;stroke-width:1.5;"/>
   </g>
   <g id="line2d_62">
    <path clip-path="url(#pc251d7190e)" d="M 158.625 80.46 
L 137.7 80.46 
" style="fill:none;stroke:#1f77b4;stroke-linecap:square;stroke-width:1.5;"/>
   </g>
   <g id="line2d_63">
    <path clip-path="url(#pc251d7190e)" d="M 137.7 80.46 
L 116.775 101.25 
" style="fill:none;stroke:#1f77b4;stroke-linecap:square;stroke-width:1.5;"/>
   </g>
   <g id="line2d_64">
    <path clip-path="url(#pc251d7190e)" d="M 116.775 101.25 
L 95.85 101.25 
" style="fill:none;stroke:#1f77b4;stroke-linecap:square;stroke-width:1.5;"/>
   </g>
   <g id="line2d_65">
    <path clip-path="url(#pc251d7190e)" d="M 95.85 101.25 
L 74.925 122.04 
" style="fill:none;stroke:#1f77b4;stroke-linecap:square;stroke-width:1.5;"/>
   </g>
   <g id="line2d_66">
    <path clip-path="url(#pc251d7190e)" d="M 74.925 122.04 
L 74.925 142.83 
" style="fill:none;stroke:#1f77b4;stroke-linecap:square;stroke-width:1.5;"/>
   </g>
   <g id="line2d_67">
    <path clip-path="url(#pc251d7190e)" d="M 74.925 142.83 
L 137.7 142.83 
" style="fill:none;stroke:#1f77b4;stroke-linecap:square;stroke-width:1.5;"/>
   </g>
   <g id="line2d_68">
    <path clip-path="url(#pc251d7190e)" d="M 137.7 142.83 
L 74.925 163.62 
" style="fill:none;stroke:#1f77b4;stroke-linecap:square;stroke-width:1.5;"/>
   </g>
   <g id="line2d_69">
    <path clip-path="url(#pc251d7190e)" d="M 74.925 163.62 
L 95.85 184.41 
" style="fill:none;stroke:#1f77b4;stroke-linecap:square;stroke-width:1.5;"/>
   </g>
   <g id="line2d_70">
    <path clip-path="url(#pc251d7190e)" d="M 95.85 184.41 
L 137.7 163.62 
" style="fill:none;stroke:#1f77b4;stroke-linecap:square;stroke-width:1.5;"/>
   </g>
   <g id="line2d_71">
    <path clip-path="url(#pc251d7190e)" d="M 137.7 163.62 
L 158.625 184.41 
" style="fill:none;stroke:#1f77b4;stroke-linecap:square;stroke-width:1.5;"/>
   </g>
   <g id="line2d_72">
    <path clip-path="url(#pc251d7190e)" d="M 158.625 184.41 
L 179.55 246.78 
" style="fill:none;stroke:#1f77b4;stroke-linecap:square;stroke-width:1.5;"/>
   </g>
   <g id="line2d_73">
    <path clip-path="url(#pc251d7190e)" d="M 179.55 246.78 
L 158.625 267.57 
" style="fill:none;stroke:#1f77b4;stroke-linecap:square;stroke-width:1.5;"/>
   </g>
   <g id="line2d_74">
    <path clip-path="url(#pc251d7190e)" d="M 158.625 267.57 
L 200.475 267.57 
" style="fill:none;stroke:#1f77b4;stroke-linecap:square;stroke-width:1.5;"/>
   </g>
   <g id="line2d_75">
    <path clip-path="url(#pc251d7190e)" d="M 200.475 267.57 
L 221.4 246.78 
" style="fill:none;stroke:#1f77b4;stroke-linecap:square;stroke-width:1.5;"/>
   </g>
   <g id="line2d_76">
    <path clip-path="url(#pc251d7190e)" d="M 221.4 246.78 
L 200.475 225.99 
" style="fill:none;stroke:#1f77b4;stroke-linecap:square;stroke-width:1.5;"/>
   </g>
   <g id="line2d_77">
    <path clip-path="url(#pc251d7190e)" d="M 200.475 225.99 
L 242.325 205.2 
" style="fill:none;stroke:#1f77b4;stroke-linecap:square;stroke-width:1.5;"/>
   </g>
   <g id="line2d_78">
    <path clip-path="url(#pc251d7190e)" d="M 242.325 205.2 
L 284.175 163.62 
" style="fill:none;stroke:#1f77b4;stroke-linecap:square;stroke-width:1.5;"/>
   </g>
   <g id="line2d_79">
    <path clip-path="url(#pc251d7190e)" d="M 284.175 163.62 
L 305.1 101.25 
" style="fill:none;stroke:#1f77b4;stroke-linecap:square;stroke-width:1.5;"/>
   </g>
   <g id="line2d_80">
    <path clip-path="url(#pc251d7190e)" d="M 367.875 80.46 
L 305.1 142.83 
" style="fill:none;stroke:#d62728;stroke-linecap:square;stroke-width:1.5;"/>
   </g>
   <g id="line2d_81">
    <path clip-path="url(#pc251d7190e)" d="M 305.1 142.83 
L 263.25 122.04 
" style="fill:none;stroke:#d62728;stroke-linecap:square;stroke-width:1.5;"/>
   </g>
   <g id="line2d_82">
    <path clip-path="url(#pc251d7190e)" d="M 263.25 122.04 
L 221.4 59.67 
" style="fill:none;stroke:#d62728;stroke-linecap:square;stroke-width:1.5;"/>
   </g>
   <g id="line2d_83">
    <path clip-path="url(#pc251d7190e)" d="M 221.4 59.67 
L 200.475 59.67 
" style="fill:none;stroke:#d62728;stroke-linecap:square;stroke-width:1.5;"/>
   </g>
   <g id="line2d_84">
    <path clip-path="url(#pc251d7190e)" d="M 200.475 59.67 
L 179.55 80.46 
" style="fill:none;stroke:#d62728;stroke-linecap:square;stroke-width:1.5;"/>
   </g>
   <g id="line2d_85">
    <path clip-path="url(#pc251d7190e)" d="M 179.55 80.46 
L 158.625 80.46 
" style="fill:none;stroke:#d62728;stroke-linecap:square;stroke-width:1.5;"/>
   </g>
   <g id="line2d_86">
    <path clip-path="url(#pc251d7190e)" d="M 158.625 80.46 
L 137.7 101.25 
" style="fill:none;stroke:#d62728;stroke-linecap:square;stroke-width:1.5;"/>
   </g>
   <g id="line2d_87">
    <path clip-path="url(#pc251d7190e)" d="M 137.7 101.25 
L 137.7 122.04 
" style="fill:none;stroke:#d62728;stroke-linecap:square;stroke-width:1.5;"/>
   </g>
   <g id="line2d_88">
    <path clip-path="url(#pc251d7190e)" d="M 137.7 122.04 
L 200.475 122.04 
" style="fill:none;stroke:#d62728;stroke-linecap:square;stroke-width:1.5;"/>
   </g>
   <g id="line2d_89">
    <path clip-path="url(#pc251d7190e)" d="M 200.475 122.04 
L 137.7 142.83 
" style="fill:none;stroke:#d62728;stroke-linecap:square;stroke-width:1.5;"/>
   </g>
   <g id="line2d_90">
    <path clip-path="url(#pc251d7190e)" d="M 137.7 142.83 
L 158.625 163.62 
" style="fill:none;stroke:#d62728;stroke-linecap:square;stroke-width:1.5;"/>
   </g>
   <g id="line2d_91">
    <path clip-path="url(#pc251d7190e)" d="M 158.625 163.62 
L 200.475 142.83 
" style="fill:none;stroke:#d62728;stroke-linecap:square;stroke-width:1.5;"/>
   </g>
   <g id="line2d_92">
    <path clip-path="url(#pc251d7190e)" d="M 200.475 142.83 
L 221.4 163.62 
" style="fill:none;stroke:#d62728;stroke-linecap:square;stroke-width:1.5;"/>
   </g>
   <g id="line2d_93">
    <path clip-path="url(#pc251d7190e)" d="M 221.4 163.62 
L 242.325 225.99 
" style="fill:none;stroke:#d62728;stroke-linecap:square;stroke-width:1.5;"/>
   </g>
   <g id="line2d_94">
    <path clip-path="url(#pc251d7190e)" d="M 242.325 225.99 
L 221.4 246.78 
" style="fill:none;stroke:#d62728;stroke-linecap:square;stroke-width:1.5;"/>
   </g>
   <g id="line2d_95">
    <path clip-path="url(#pc251d7190e)" d="M 221.4 246.78 
L 263.25 246.78 
" style="fill:none;stroke:#d62728;stroke-linecap:square;stroke-width:1.5;"/>
   </g>
   <g id="line2d_96">
    <path clip-path="url(#pc251d7190e)" d="M 263.25 246.78 
L 284.175 225.99 
" style="fill:none;stroke:#d62728;stroke-linecap:square;stroke-width:1.5;"/>
   </g>
   <g id="line2d_97">
    <path clip-path="url(#pc251d7190e)" d="M 284.175 225.99 
L 263.25 205.2 
" style="fill:none;stroke:#d62728;stroke-linecap:square;stroke-width:1.5;"/>
   </g>
   <g id="line2d_98">
    <path clip-path="url(#pc251d7190e)" d="M 263.25 205.2 
L 305.1 184.41 
" style="fill:none;stroke:#d62728;stroke-linecap:square;stroke-width:1.5;"/>
   </g>
   <g id="line2d_99">
    <path clip-path="url(#pc251d7190e)" d="M 305.1 184.41 
L 346.95 142.83 
" style="fill:none;stroke:#d62728;stroke-linecap:square;stroke-width:1.5;"/>
   </g>
   <g id="line2d_100">
    <path clip-path="url(#pc251d7190e)" d="M 346.95 142.83 
L 367.875 80.46 
" style="fill:none;stroke:#d62728;stroke-linecap:square;stroke-width:1.5;"/>
   </g>
   <g id="patch_3">
    <path d="M 54 288.36 
L 54 38.88 
" style="fill:none;stroke:#000000;stroke-linecap:square;stroke-linejoin:miter;stroke-width:0.8;"/>
   </g>
   <g id="patch_4">
    <path d="M 388.8 288.36 
L 388.8 38.88 
" style="fill:none;stroke:#000000;stroke-linecap:square;stroke-linejoin:miter;stroke-width:0.8;"/>
   </g>
   <g id="patch_5">
    <path d="M 54 288.36 
L 388.8 288.36 
" style="fill:none;stroke:#000000;stroke-linecap:square;stroke-linejoin:miter;stroke-width:0.8;"/>
   </g>
   <g id="patch_6">
    <path d="M 54 38.88 
L 388.8 38.88 
" style="fill:none;stroke:#000000;stroke-linecap:square;stroke-linejoin:miter;stroke-width:0.8;"/>
   </g>
  </g>
 </g>
 <defs>
  <clipPath id="pc251d7190e">
   <rect height="249.48" width="334.8" x="54" y="38.88"/>
  </clipPath>
 </defs>
</svg>
