<?xml version="1.0" encoding="utf-8" standalone="no"?>
<!DOCTYPE svg PUBLIC "-//W3C//DTD SVG 1.1//EN"
  "http://www.w3.org/Graphics/SVG/1.1/DTD/svg11.dtd">
<svg height="345.6pt" version="1.1" viewBox="0 0 460.8 345.6" width="460.8pt" xmlns="http://www.w3.org/2000/svg" xmlns:xlink="http://www.w3.org/1999/xlink">
 <metadata>
  <rdf:RDF xmlns:cc="http://creativecommons.org/ns#" xmlns:dc="http://purl.org/dc/elements/1.1/" xmlns:rdf="http://www.w3.org/1999/02/22-rdf-syntax-ns#">
   <cc:Work>
    <dc:type rdf:resource="http://purl.org/dc/dcmitype/StillImage"/>
    <dc:date>2023-01-08T20:14:10.672172</dc:date>
    <dc:format>image/svg+xml</dc:format>
    <dc:creator>
     <cc:Agent>
      <dc:title>Matplotlib v3.4.1, https://matplotlib.org/</dc:title>
     </cc:Agent>
    </dc:creator>
   </cc:Work>
  </rdf:RDF>
 </metadata>
 <defs>
  <style type="text/css">*{stroke-linecap:butt;stroke-linejoin:round;}</style>
 </defs>
 <g id="figure_1">
  <g id="patch_1">
   <path d="M 0 345.6 
L 460.8 345.6 
L 460.8 0 
L 0 0 
z
" style="fill:#ffffff;"/>
  </g>
  <g id="patch_2">
   <path d="M 103.104 307.584 
L 369.216 307.584 
L 369.216 41.472 
L 103.104 41.472 
z
" style="fill:#ffffff;"/>
  </g>
  <g id="pane3d_1">
   <g id="patch_3">
    <path d="M 123.197291 241.969309 
L 211.076164 168.307495 
L 209.854564 62.073991 
L 117.770234 129.272941 
" style="fill:#f2f2f2;opacity:0.5;stroke:#f2f2f2;stroke-linejoin:miter;"/>
   </g>
  </g>
  <g id="pane3d_2">
   <g id="patch_4">
    <path d="M 211.076164 168.307495 
L 352.090401 209.294766 
L 357.122702 99.402171 
L 209.854564 62.073991 
" style="fill:#e6e6e6;opacity:0.5;stroke:#e6e6e6;stroke-linejoin:miter;"/>
   </g>
  </g>
  <g id="pane3d_3">
   <g id="patch_5">
    <path d="M 123.197291 241.969309 
L 272.679269 290.790123 
L 352.090401 209.294766 
L 211.076164 168.307495 
" style="fill:#ececec;opacity:0.5;stroke:#ececec;stroke-linejoin:miter;"/>
   </g>
  </g>
  <g id="axis3d_1">
   <g id="line2d_1">
    <path d="M 123.197291 241.969309 
L 272.679269 290.790123 
" style="fill:none;stroke:#000000;stroke-linecap:square;stroke-width:0.8;"/>
   </g>
   <g id="text_1">
    <!-- x -->
    <g transform="translate(176.717053 303.76759)scale(0.1 -0.1)">
     <defs>
      <path d="M 3513 3500 
L 2247 1797 
L 3578 0 
L 2900 0 
L 1881 1375 
L 863 0 
L 184 0 
L 1544 1831 
L 300 3500 
L 978 3500 
L 1906 2253 
L 2834 3500 
L 3513 3500 
z
" id="DejaVuSans-78" transform="scale(0.015625)"/>
     </defs>
     <use xlink:href="#DejaVuSans-78"/>
    </g>
   </g>
   <g id="Line3DCollection_1">
    <path d="M 137.924501 246.779216 
L 225.024511 172.361729 
L 224.393826 65.75927 
" style="fill:none;stroke:#b0b0b0;stroke-width:0.8;"/>
    <path d="M 163.425239 255.107757 
L 249.147892 179.373443 
L 249.553506 72.136516 
" style="fill:none;stroke:#b0b0b0;stroke-width:0.8;"/>
    <path d="M 189.39899 263.590784 
L 273.681372 186.504357 
L 275.159539 78.626898 
" style="fill:none;stroke:#b0b0b0;stroke-width:0.8;"/>
    <path d="M 215.859038 272.232635 
L 298.635498 193.757537 
L 301.223909 85.233457 
" style="fill:none;stroke:#b0b0b0;stroke-width:0.8;"/>
    <path d="M 242.819169 281.037814 
L 324.021184 201.136153 
L 327.759034 91.959337 
" style="fill:none;stroke:#b0b0b0;stroke-width:0.8;"/>
   </g>
   <g id="xtick_1">
    <g id="line2d_2">
     <path d="M 138.683089 246.131085 
L 136.404063 248.078265 
" style="fill:none;stroke:#000000;stroke-linecap:square;stroke-width:0.8;"/>
    </g>
    <g id="text_2">
     <!-- −2 -->
     <g transform="translate(123.030009 270.127575)scale(0.1 -0.1)">
      <defs>
       <path d="M 678 2272 
L 4684 2272 
L 4684 1741 
L 678 1741 
L 678 2272 
z
" id="DejaVuSans-2212" transform="scale(0.015625)"/>
       <path d="M 1228 531 
L 3431 531 
L 3431 0 
L 469 0 
L 469 531 
Q 828 903 1448 1529 
Q 2069 2156 2228 2338 
Q 2531 2678 2651 2914 
Q 2772 3150 2772 3378 
Q 2772 3750 2511 3984 
Q 2250 4219 1831 4219 
Q 1534 4219 1204 4116 
Q 875 4013 500 3803 
L 500 4441 
Q 881 4594 1212 4672 
Q 1544 4750 1819 4750 
Q 2544 4750 2975 4387 
Q 3406 4025 3406 3419 
Q 3406 3131 3298 2873 
Q 3191 2616 2906 2266 
Q 2828 2175 2409 1742 
Q 1991 1309 1228 531 
z
" id="DejaVuSans-32" transform="scale(0.015625)"/>
      </defs>
      <use xlink:href="#DejaVuSans-2212"/>
      <use x="83.789062" xlink:href="#DejaVuSans-32"/>
     </g>
    </g>
   </g>
   <g id="xtick_2">
    <g id="line2d_3">
     <path d="M 164.172389 254.447663 
L 161.927695 256.430808 
" style="fill:none;stroke:#000000;stroke-linecap:square;stroke-width:0.8;"/>
    </g>
    <g id="text_3">
     <!-- 0 -->
     <g transform="translate(152.74706 278.632699)scale(0.1 -0.1)">
      <defs>
       <path d="M 2034 4250 
Q 1547 4250 1301 3770 
Q 1056 3291 1056 2328 
Q 1056 1369 1301 889 
Q 1547 409 2034 409 
Q 2525 409 2770 889 
Q 3016 1369 3016 2328 
Q 3016 3291 2770 3770 
Q 2525 4250 2034 4250 
z
M 2034 4750 
Q 2819 4750 3233 4129 
Q 3647 3509 3647 2328 
Q 3647 1150 3233 529 
Q 2819 -91 2034 -91 
Q 1250 -91 836 529 
Q 422 1150 422 2328 
Q 422 3509 836 4129 
Q 1250 4750 2034 4750 
z
" id="DejaVuSans-30" transform="scale(0.015625)"/>
      </defs>
      <use xlink:href="#DejaVuSans-30"/>
     </g>
    </g>
   </g>
   <g id="xtick_3">
    <g id="line2d_4">
     <path d="M 190.134146 262.918394 
L 187.925457 264.938508 
" style="fill:none;stroke:#000000;stroke-linecap:square;stroke-width:0.8;"/>
    </g>
    <g id="text_4">
     <!-- 2 -->
     <g transform="translate(178.749568 287.296184)scale(0.1 -0.1)">
      <use xlink:href="#DejaVuSans-32"/>
     </g>
    </g>
   </g>
   <g id="xtick_4">
    <g id="line2d_5">
     <path d="M 216.581618 271.547602 
L 214.410682 273.605729 
" style="fill:none;stroke:#000000;stroke-linecap:square;stroke-width:0.8;"/>
    </g>
    <g id="text_5">
     <!-- 4 -->
     <g transform="translate(205.240776 296.122493)scale(0.1 -0.1)">
      <defs>
       <path d="M 2419 4116 
L 825 1625 
L 2419 1625 
L 2419 4116 
z
M 2253 4666 
L 3047 4666 
L 3047 1625 
L 3713 1625 
L 3713 1100 
L 3047 1100 
L 3047 0 
L 2419 0 
L 2419 1100 
L 313 1100 
L 313 1709 
L 2253 4666 
z
" id="DejaVuSans-34" transform="scale(0.015625)"/>
      </defs>
      <use xlink:href="#DejaVuSans-34"/>
     </g>
    </g>
   </g>
   <g id="xtick_5">
    <g id="line2d_6">
     <path d="M 243.528565 280.339778 
L 241.397211 282.437001 
" style="fill:none;stroke:#000000;stroke-linecap:square;stroke-width:0.8;"/>
    </g>
    <g id="text_6">
     <!-- 6 -->
     <g transform="translate(232.234593 305.11626)scale(0.1 -0.1)">
      <defs>
       <path d="M 2113 2584 
Q 1688 2584 1439 2293 
Q 1191 2003 1191 1497 
Q 1191 994 1439 701 
Q 1688 409 2113 409 
Q 2538 409 2786 701 
Q 3034 994 3034 1497 
Q 3034 2003 2786 2293 
Q 2538 2584 2113 2584 
z
M 3366 4563 
L 3366 3988 
Q 3128 4100 2886 4159 
Q 2644 4219 2406 4219 
Q 1781 4219 1451 3797 
Q 1122 3375 1075 2522 
Q 1259 2794 1537 2939 
Q 1816 3084 2150 3084 
Q 2853 3084 3261 2657 
Q 3669 2231 3669 1497 
Q 3669 778 3244 343 
Q 2819 -91 2113 -91 
Q 1303 -91 875 529 
Q 447 1150 447 2328 
Q 447 3434 972 4092 
Q 1497 4750 2381 4750 
Q 2619 4750 2861 4703 
Q 3103 4656 3366 4563 
z
" id="DejaVuSans-36" transform="scale(0.015625)"/>
      </defs>
      <use xlink:href="#DejaVuSans-36"/>
     </g>
    </g>
   </g>
  </g>
  <g id="axis3d_2">
   <g id="line2d_7">
    <path d="M 352.090401 209.294766 
L 272.679269 290.790123 
" style="fill:none;stroke:#000000;stroke-linecap:square;stroke-width:0.8;"/>
   </g>
   <g id="text_7">
    <!-- y -->
    <g transform="translate(338.173407 278.988697)scale(0.1 -0.1)">
     <defs>
      <path d="M 2059 -325 
Q 1816 -950 1584 -1140 
Q 1353 -1331 966 -1331 
L 506 -1331 
L 506 -850 
L 844 -850 
Q 1081 -850 1212 -737 
Q 1344 -625 1503 -206 
L 1606 56 
L 191 3500 
L 800 3500 
L 1894 763 
L 2988 3500 
L 3597 3500 
L 2059 -325 
z
" id="DejaVuSans-79" transform="scale(0.015625)"/>
     </defs>
     <use xlink:href="#DejaVuSans-79"/>
    </g>
   </g>
   <g id="Line3DCollection_2">
    <path d="M 128.069845 121.756754 
L 132.993423 233.757997 
L 281.566261 281.669883 
" style="fill:none;stroke:#b0b0b0;stroke-width:0.8;"/>
    <path d="M 142.12777 111.49792 
L 146.377568 222.539141 
L 293.694122 269.223714 
" style="fill:none;stroke:#b0b0b0;stroke-width:0.8;"/>
    <path d="M 155.821311 101.504998 
L 159.429707 211.59858 
L 305.505426 257.10241 
" style="fill:none;stroke:#b0b0b0;stroke-width:0.8;"/>
    <path d="M 169.164453 91.767781 
L 172.162042 200.926084 
L 317.012407 245.293417 
" style="fill:none;stroke:#b0b0b0;stroke-width:0.8;"/>
    <path d="M 182.170475 82.276578 
L 184.586185 190.511921 
L 328.226678 233.784816 
" style="fill:none;stroke:#b0b0b0;stroke-width:0.8;"/>
    <path d="M 194.851996 73.022182 
L 196.713191 180.346824 
L 339.159266 222.565291 
" style="fill:none;stroke:#b0b0b0;stroke-width:0.8;"/>
    <path d="M 207.221008 63.99584 
L 208.553595 170.421962 
L 349.820653 211.624085 
" style="fill:none;stroke:#b0b0b0;stroke-width:0.8;"/>
   </g>
   <g id="xtick_6">
    <g id="line2d_8">
     <path d="M 280.314467 281.266203 
L 284.073074 282.478282 
" style="fill:none;stroke:#000000;stroke-linecap:square;stroke-width:0.8;"/>
    </g>
    <g id="text_8">
     <!-- −4 -->
     <g transform="translate(287.030329 302.640039)scale(0.1 -0.1)">
      <use xlink:href="#DejaVuSans-2212"/>
      <use x="83.789062" xlink:href="#DejaVuSans-34"/>
     </g>
    </g>
   </g>
   <g id="xtick_7">
    <g id="line2d_9">
     <path d="M 292.453741 268.830637 
L 296.178037 270.010866 
" style="fill:none;stroke:#000000;stroke-linecap:square;stroke-width:0.8;"/>
    </g>
    <g id="text_9">
     <!-- −2 -->
     <g transform="translate(298.995505 290.00962)scale(0.1 -0.1)">
      <use xlink:href="#DejaVuSans-2212"/>
      <use x="83.789062" xlink:href="#DejaVuSans-32"/>
     </g>
    </g>
   </g>
   <g id="xtick_8">
    <g id="line2d_10">
     <path d="M 304.276293 256.719525 
L 307.966776 257.869142 
" style="fill:none;stroke:#000000;stroke-linecap:square;stroke-width:0.8;"/>
    </g>
    <g id="text_10">
     <!-- 0 -->
     <g transform="translate(314.838033 277.709067)scale(0.1 -0.1)">
      <use xlink:href="#DejaVuSans-30"/>
     </g>
    </g>
   </g>
   <g id="xtick_9">
    <g id="line2d_11">
     <path d="M 315.794357 244.920331 
L 319.451524 246.040512 
" style="fill:none;stroke:#000000;stroke-linecap:square;stroke-width:0.8;"/>
    </g>
    <g id="text_11">
     <!-- 2 -->
     <g transform="translate(326.190309 265.725624)scale(0.1 -0.1)">
      <use xlink:href="#DejaVuSans-32"/>
     </g>
    </g>
   </g>
   <g id="xtick_10">
    <g id="line2d_12">
     <path d="M 327.019549 233.421159 
L 330.643888 234.513021 
" style="fill:none;stroke:#000000;stroke-linecap:square;stroke-width:0.8;"/>
    </g>
    <g id="text_12">
     <!-- 4 -->
     <g transform="translate(337.253646 254.047185)scale(0.1 -0.1)">
      <use xlink:href="#DejaVuSans-34"/>
     </g>
    </g>
   </g>
   <g id="xtick_11">
    <g id="line2d_13">
     <path d="M 337.962897 222.210709 
L 341.554893 223.275312 
" style="fill:none;stroke:#000000;stroke-linecap:square;stroke-width:0.8;"/>
    </g>
    <g id="text_13">
     <!-- 6 -->
     <g transform="translate(348.038937 242.662251)scale(0.1 -0.1)">
      <use xlink:href="#DejaVuSans-36"/>
     </g>
    </g>
   </g>
   <g id="xtick_12">
    <g id="line2d_14">
     <path d="M 348.634885 211.278242 
L 352.195018 212.316595 
" style="fill:none;stroke:#000000;stroke-linecap:square;stroke-width:0.8;"/>
    </g>
    <g id="text_14">
     <!-- 8 -->
     <g transform="translate(358.556533 231.559894)scale(0.1 -0.1)">
      <defs>
       <path d="M 2034 2216 
Q 1584 2216 1326 1975 
Q 1069 1734 1069 1313 
Q 1069 891 1326 650 
Q 1584 409 2034 409 
Q 2484 409 2743 651 
Q 3003 894 3003 1313 
Q 3003 1734 2745 1975 
Q 2488 2216 2034 2216 
z
M 1403 2484 
Q 997 2584 770 2862 
Q 544 3141 544 3541 
Q 544 4100 942 4425 
Q 1341 4750 2034 4750 
Q 2731 4750 3128 4425 
Q 3525 4100 3525 3541 
Q 3525 3141 3298 2862 
Q 3072 2584 2669 2484 
Q 3125 2378 3379 2068 
Q 3634 1759 3634 1313 
Q 3634 634 3220 271 
Q 2806 -91 2034 -91 
Q 1263 -91 848 271 
Q 434 634 434 1313 
Q 434 1759 690 2068 
Q 947 2378 1403 2484 
z
M 1172 3481 
Q 1172 3119 1398 2916 
Q 1625 2713 2034 2713 
Q 2441 2713 2670 2916 
Q 2900 3119 2900 3481 
Q 2900 3844 2670 4047 
Q 2441 4250 2034 4250 
Q 1625 4250 1398 4047 
Q 1172 3844 1172 3481 
z
" id="DejaVuSans-38" transform="scale(0.015625)"/>
      </defs>
      <use xlink:href="#DejaVuSans-38"/>
     </g>
    </g>
   </g>
  </g>
  <g id="axis3d_3">
   <g id="line2d_15">
    <path d="M 352.090401 209.294766 
L 357.122702 99.402171 
" style="fill:none;stroke:#000000;stroke-linecap:square;stroke-width:0.8;"/>
   </g>
   <g id="text_15">
    <!-- z -->
    <g transform="translate(392.303011 152.902279)scale(0.1 -0.1)">
     <defs>
      <path d="M 353 3500 
L 3084 3500 
L 3084 2975 
L 922 459 
L 3084 459 
L 3084 0 
L 275 0 
L 275 525 
L 2438 3041 
L 353 3041 
L 353 3500 
z
" id="DejaVuSans-7a" transform="scale(0.015625)"/>
     </defs>
     <use xlink:href="#DejaVuSans-7a"/>
    </g>
   </g>
   <g id="Line3DCollection_3">
    <path d="M 352.397746 202.583133 
L 211.001408 161.806466 
L 122.866361 235.097325 
" style="fill:none;stroke:#b0b0b0;stroke-width:0.8;"/>
    <path d="M 353.464389 179.29036 
L 210.742114 139.25761 
L 121.717336 211.23708 
" style="fill:none;stroke:#b0b0b0;stroke-width:0.8;"/>
    <path d="M 354.551427 155.552235 
L 210.478101 116.298387 
L 120.545497 186.903085 
" style="fill:none;stroke:#b0b0b0;stroke-width:0.8;"/>
    <path d="M 355.659449 131.355863 
L 210.20924 92.917493 
L 119.350158 162.081091 
" style="fill:none;stroke:#b0b0b0;stroke-width:0.8;"/>
    <path d="M 356.789069 106.687843 
L 209.935394 69.103202 
L 118.130604 136.756269 
" style="fill:none;stroke:#b0b0b0;stroke-width:0.8;"/>
   </g>
   <g id="xtick_13">
    <g id="line2d_16">
     <path d="M 351.210889 202.24086 
L 354.77429 203.268494 
" style="fill:none;stroke:#000000;stroke-linecap:square;stroke-width:0.8;"/>
    </g>
    <g id="text_16">
     <!-- −2 -->
     <g transform="translate(363.324145 207.589645)scale(0.1 -0.1)">
      <use xlink:href="#DejaVuSans-2212"/>
      <use x="83.789062" xlink:href="#DejaVuSans-32"/>
     </g>
    </g>
   </g>
   <g id="xtick_14">
    <g id="line2d_17">
     <path d="M 352.265871 178.954183 
L 355.864312 179.963524 
" style="fill:none;stroke:#000000;stroke-linecap:square;stroke-width:0.8;"/>
    </g>
    <g id="text_17">
     <!-- −1 -->
     <g transform="translate(364.560292 184.343091)scale(0.1 -0.1)">
      <defs>
       <path d="M 794 531 
L 1825 531 
L 1825 4091 
L 703 3866 
L 703 4441 
L 1819 4666 
L 2450 4666 
L 2450 531 
L 3481 531 
L 3481 0 
L 794 0 
L 794 531 
z
" id="DejaVuSans-31" transform="scale(0.015625)"/>
      </defs>
      <use xlink:href="#DejaVuSans-2212"/>
      <use x="83.789062" xlink:href="#DejaVuSans-31"/>
     </g>
    </g>
   </g>
   <g id="xtick_15">
    <g id="line2d_18">
     <path d="M 353.341016 155.22245 
L 356.975191 156.212608 
" style="fill:none;stroke:#000000;stroke-linecap:square;stroke-width:0.8;"/>
    </g>
    <g id="text_18">
     <!-- 0 -->
     <g transform="translate(370.009844 160.653431)scale(0.1 -0.1)">
      <use xlink:href="#DejaVuSans-30"/>
     </g>
    </g>
   </g>
   <g id="xtick_16">
    <g id="line2d_19">
     <path d="M 354.436907 131.032779 
L 358.107534 132.002822 
" style="fill:none;stroke:#000000;stroke-linecap:square;stroke-width:0.8;"/>
    </g>
    <g id="text_19">
     <!-- 1 -->
     <g transform="translate(371.293795 136.507873)scale(0.1 -0.1)">
      <use xlink:href="#DejaVuSans-31"/>
     </g>
    </g>
   </g>
   <g id="xtick_17">
    <g id="line2d_20">
     <path d="M 355.554151 106.371787 
L 359.261966 107.320738 
" style="fill:none;stroke:#000000;stroke-linecap:square;stroke-width:0.8;"/>
    </g>
    <g id="text_20">
     <!-- 2 -->
     <g transform="translate(372.602696 111.893128)scale(0.1 -0.1)">
      <use xlink:href="#DejaVuSans-32"/>
     </g>
    </g>
   </g>
  </g>
  <g id="axes_1">
   <g id="line2d_21">
    <path clip-path="url(#p2483bcfb2e)" d="M 166.717012 160.408169 
L 297.048088 198.52241 
" style="fill:none;stroke:#000000;stroke-linecap:square;stroke-width:1.5;"/>
   </g>
   <g id="line2d_22">
    <path clip-path="url(#p2483bcfb2e)" d="M 167.722374 194.504188 
L 244.210692 131.142683 
" style="fill:none;stroke:#000000;stroke-linecap:square;stroke-width:1.5;"/>
   </g>
   <g id="line2d_23">
    <path clip-path="url(#p2483bcfb2e)" d="M 198.67941 217.076753 
L 197.05005 120.080302 
" style="fill:none;stroke:#000000;stroke-linecap:square;stroke-width:1.5;"/>
   </g>
   <g id="line2d_24">
    <path clip-path="url(#p2483bcfb2e)" d="M 228.435675 106.711084 
L 248.582153 131.745228 
" style="fill:none;stroke:#d62728;stroke-linecap:square;stroke-width:1.5;"/>
   </g>
   <g id="line2d_25">
    <path clip-path="url(#p2483bcfb2e)" d="M 248.582153 131.745228 
L 223.238731 138.339074 
" style="fill:none;stroke:#d62728;stroke-linecap:square;stroke-width:1.5;"/>
   </g>
   <g id="line2d_26">
    <path clip-path="url(#p2483bcfb2e)" d="M 223.238731 138.339074 
L 171.733984 137.738775 
" style="fill:none;stroke:#d62728;stroke-linecap:square;stroke-width:1.5;"/>
   </g>
   <g id="line2d_27">
    <path clip-path="url(#p2483bcfb2e)" d="M 171.733984 137.738775 
L 165.084523 142.901039 
" style="fill:none;stroke:#d62728;stroke-linecap:square;stroke-width:1.5;"/>
   </g>
   <g id="line2d_28">
    <path clip-path="url(#p2483bcfb2e)" d="M 165.084523 142.901039 
L 171.2633 151.86203 
" style="fill:none;stroke:#d62728;stroke-linecap:square;stroke-width:1.5;"/>
   </g>
   <g id="line2d_29">
    <path clip-path="url(#p2483bcfb2e)" d="M 171.2633 151.86203 
L 164.492173 157.209417 
" style="fill:none;stroke:#d62728;stroke-linecap:square;stroke-width:1.5;"/>
   </g>
   <g id="line2d_30">
    <path clip-path="url(#p2483bcfb2e)" d="M 164.492173 157.209417 
L 170.77564 166.494668 
" style="fill:none;stroke:#d62728;stroke-linecap:square;stroke-width:1.5;"/>
   </g>
   <g id="line2d_31">
    <path clip-path="url(#p2483bcfb2e)" d="M 170.77564 166.494668 
L 184.0443 170.39813 
" style="fill:none;stroke:#d62728;stroke-linecap:square;stroke-width:1.5;"/>
   </g>
   <g id="line2d_32">
    <path clip-path="url(#p2483bcfb2e)" d="M 184.0443 170.39813 
L 204.027467 154.052914 
" style="fill:none;stroke:#d62728;stroke-linecap:square;stroke-width:1.5;"/>
   </g>
   <g id="line2d_33">
    <path clip-path="url(#p2483bcfb2e)" d="M 204.027467 154.052914 
L 197.438957 174.338659 
" style="fill:none;stroke:#d62728;stroke-linecap:square;stroke-width:1.5;"/>
   </g>
   <g id="line2d_34">
    <path clip-path="url(#p2483bcfb2e)" d="M 197.438957 174.338659 
L 217.594304 172.690397 
" style="fill:none;stroke:#d62728;stroke-linecap:square;stroke-width:1.5;"/>
   </g>
   <g id="line2d_35">
    <path clip-path="url(#p2483bcfb2e)" d="M 217.594304 172.690397 
L 217.2501 157.839406 
" style="fill:none;stroke:#d62728;stroke-linecap:square;stroke-width:1.5;"/>
   </g>
   <g id="line2d_36">
    <path clip-path="url(#p2483bcfb2e)" d="M 217.2501 157.839406 
L 236.969044 156.255661 
" style="fill:none;stroke:#d62728;stroke-linecap:square;stroke-width:1.5;"/>
   </g>
   <g id="line2d_37">
    <path clip-path="url(#p2483bcfb2e)" d="M 236.969044 156.255661 
L 283.693364 162.298185 
" style="fill:none;stroke:#d62728;stroke-linecap:square;stroke-width:1.5;"/>
   </g>
   <g id="line2d_38">
    <path clip-path="url(#p2483bcfb2e)" d="M 283.693364 162.298185 
L 291.380088 171.700165 
" style="fill:none;stroke:#d62728;stroke-linecap:square;stroke-width:1.5;"/>
   </g>
   <g id="line2d_39">
    <path clip-path="url(#p2483bcfb2e)" d="M 291.380088 171.700165 
L 303.390224 160.697132 
" style="fill:none;stroke:#d62728;stroke-linecap:square;stroke-width:1.5;"/>
   </g>
   <g id="line2d_40">
    <path clip-path="url(#p2483bcfb2e)" d="M 303.390224 160.697132 
L 295.670047 151.541036 
" style="fill:none;stroke:#d62728;stroke-linecap:square;stroke-width:1.5;"/>
   </g>
   <g id="line2d_41">
    <path clip-path="url(#p2483bcfb2e)" d="M 295.670047 151.541036 
L 276.178577 153.106511 
" style="fill:none;stroke:#d62728;stroke-linecap:square;stroke-width:1.5;"/>
   </g>
   <g id="line2d_42">
    <path clip-path="url(#p2483bcfb2e)" d="M 276.178577 153.106511 
L 274.821095 138.940279 
" style="fill:none;stroke:#d62728;stroke-linecap:square;stroke-width:1.5;"/>
   </g>
   <g id="line2d_43">
    <path clip-path="url(#p2483bcfb2e)" d="M 274.821095 138.940279 
L 260.561906 121.768168 
" style="fill:none;stroke:#d62728;stroke-linecap:square;stroke-width:1.5;"/>
   </g>
   <g id="line2d_44">
    <path clip-path="url(#p2483bcfb2e)" d="M 260.561906 121.768168 
L 228.435675 106.711084 
" style="fill:none;stroke:#d62728;stroke-linecap:square;stroke-width:1.5;"/>
   </g>
   <g id="Path3DCollection_1">
    <defs>
     <path d="M -2.236068 2.236068 
L 2.236068 -2.236068 
M -2.236068 -2.236068 
L 2.236068 2.236068 
" id="mda9b55ab72" style="stroke:#000000;stroke-width:1.5;"/>
    </defs>
    <g clip-path="url(#p2483bcfb2e)">
     <use style="stroke:#000000;stroke-width:1.5;" x="197.880574" xlink:href="#mda9b55ab72" y="169.521694"/>
    </g>
   </g>
   <g id="Path3DCollection_2">
    <defs>
     <path d="M 0 2.236068 
C 0.593012 2.236068 1.161816 2.000462 1.581139 1.581139 
C 2.000462 1.161816 2.236068 0.593012 2.236068 -0 
C 2.236068 -0.593012 2.000462 -1.161816 1.581139 -1.581139 
C 1.161816 -2.000462 0.593012 -2.236068 0 -2.236068 
C -0.593012 -2.236068 -1.161816 -2.000462 -1.581139 -1.581139 
C -2.000462 -1.161816 -2.236068 -0.593012 -2.236068 0 
C -2.236068 0.593012 -2.000462 1.161816 -1.581139 1.581139 
C -1.161816 2.000462 -0.593012 2.236068 0 2.236068 
z
" id="C0_0_c811d60a04"/>
    </defs>
    <g clip-path="url(#p2483bcfb2e)">
     <use style="fill:#d62728;fill-opacity:0.3;stroke:#d62728;stroke-opacity:0.3;" x="228.435675" xlink:href="#C0_0_c811d60a04" y="106.711084"/>
    </g>
    <g clip-path="url(#p2483bcfb2e)">
     <use style="fill:#d62728;fill-opacity:0.455853;stroke:#d62728;stroke-opacity:0.455853;" x="260.561906" xlink:href="#C0_0_c811d60a04" y="121.768168"/>
    </g>
    <g clip-path="url(#p2483bcfb2e)">
     <use style="fill:#d62728;fill-opacity:0.559124;stroke:#d62728;stroke-opacity:0.559124;" x="248.582153" xlink:href="#C0_0_c811d60a04" y="131.745228"/>
    </g>
    <g clip-path="url(#p2483bcfb2e)">
     <use style="fill:#d62728;fill-opacity:0.621162;stroke:#d62728;stroke-opacity:0.621162;" x="171.733984" xlink:href="#C0_0_c811d60a04" y="137.738775"/>
    </g>
    <g clip-path="url(#p2483bcfb2e)">
     <use style="fill:#d62728;fill-opacity:0.627375;stroke:#d62728;stroke-opacity:0.627375;" x="223.238731" xlink:href="#C0_0_c811d60a04" y="138.339074"/>
    </g>
    <g clip-path="url(#p2483bcfb2e)">
     <use style="fill:#d62728;fill-opacity:0.633598;stroke:#d62728;stroke-opacity:0.633598;" x="274.821095" xlink:href="#C0_0_c811d60a04" y="138.940279"/>
    </g>
    <g clip-path="url(#p2483bcfb2e)">
     <use style="fill:#d62728;fill-opacity:0.674595;stroke:#d62728;stroke-opacity:0.674595;" x="165.084523" xlink:href="#C0_0_c811d60a04" y="142.901039"/>
    </g>
    <g clip-path="url(#p2483bcfb2e)">
     <use style="fill:#d62728;fill-opacity:0.764026;stroke:#d62728;stroke-opacity:0.764026;" x="295.670047" xlink:href="#C0_0_c811d60a04" y="151.541036"/>
    </g>
    <g clip-path="url(#p2483bcfb2e)">
     <use style="fill:#d62728;fill-opacity:0.767349;stroke:#d62728;stroke-opacity:0.767349;" x="171.2633" xlink:href="#C0_0_c811d60a04" y="151.86203"/>
    </g>
    <g clip-path="url(#p2483bcfb2e)">
     <use style="fill:#d62728;fill-opacity:0.78023;stroke:#d62728;stroke-opacity:0.78023;" x="276.178577" xlink:href="#C0_0_c811d60a04" y="153.106511"/>
    </g>
    <g clip-path="url(#p2483bcfb2e)">
     <use style="fill:#d62728;fill-opacity:0.790026;stroke:#d62728;stroke-opacity:0.790026;" x="204.027467" xlink:href="#C0_0_c811d60a04" y="154.052914"/>
    </g>
    <g clip-path="url(#p2483bcfb2e)">
     <use style="fill:#d62728;fill-opacity:0.812826;stroke:#d62728;stroke-opacity:0.812826;" x="236.969044" xlink:href="#C0_0_c811d60a04" y="156.255661"/>
    </g>
    <g clip-path="url(#p2483bcfb2e)">
     <use style="fill:#d62728;fill-opacity:0.822699;stroke:#d62728;stroke-opacity:0.822699;" x="164.492173" xlink:href="#C0_0_c811d60a04" y="157.209417"/>
    </g>
    <g clip-path="url(#p2483bcfb2e)">
     <use style="fill:#d62728;fill-opacity:0.829219;stroke:#d62728;stroke-opacity:0.829219;" x="217.2501" xlink:href="#C0_0_c811d60a04" y="157.839406"/>
    </g>
    <g clip-path="url(#p2483bcfb2e)">
     <use style="fill:#d62728;fill-opacity:0.858799;stroke:#d62728;stroke-opacity:0.858799;" x="303.390224" xlink:href="#C0_0_c811d60a04" y="160.697132"/>
    </g>
    <g clip-path="url(#p2483bcfb2e)">
     <use style="fill:#d62728;fill-opacity:0.875371;stroke:#d62728;stroke-opacity:0.875371;" x="283.693364" xlink:href="#C0_0_c811d60a04" y="162.298185"/>
    </g>
    <g clip-path="url(#p2483bcfb2e)">
     <use style="fill:#d62728;fill-opacity:0.918808;stroke:#d62728;stroke-opacity:0.918808;" x="170.77564" xlink:href="#C0_0_c811d60a04" y="166.494668"/>
    </g>
    <g clip-path="url(#p2483bcfb2e)">
     <use style="fill:#d62728;fill-opacity:0.959212;stroke:#d62728;stroke-opacity:0.959212;" x="184.0443" xlink:href="#C0_0_c811d60a04" y="170.39813"/>
    </g>
    <g clip-path="url(#p2483bcfb2e)">
     <use style="fill:#d62728;fill-opacity:0.972689;stroke:#d62728;stroke-opacity:0.972689;" x="291.380088" xlink:href="#C0_0_c811d60a04" y="171.700165"/>
    </g>
    <g clip-path="url(#p2483bcfb2e)">
     <use style="fill:#d62728;fill-opacity:0.982939;stroke:#d62728;stroke-opacity:0.982939;" x="217.594304" xlink:href="#C0_0_c811d60a04" y="172.690397"/>
    </g>
    <g clip-path="url(#p2483bcfb2e)">
     <use style="fill:#d62728;stroke:#d62728;" x="197.438957" xlink:href="#C0_0_c811d60a04" y="174.338659"/>
    </g>
   </g>
  </g>
 </g>
 <defs>
  <clipPath id="p2483bcfb2e">
   <rect height="266.112" width="266.112" x="103.104" y="41.472"/>
  </clipPath>
 </defs>
</svg>
