<?xml version="1.0" encoding="utf-8" standalone="no"?>
<!DOCTYPE svg PUBLIC "-//W3C//DTD SVG 1.1//EN"
  "http://www.w3.org/Graphics/SVG/1.1/DTD/svg11.dtd">
<svg height="295.578947pt" version="1.1" viewBox="0 0 432 295.578947" width="432pt" xmlns="http://www.w3.org/2000/svg" xmlns:xlink="http://www.w3.org/1999/xlink">
 <metadata>
  <rdf:RDF xmlns:cc="http://creativecommons.org/ns#" xmlns:dc="http://purl.org/dc/elements/1.1/" xmlns:rdf="http://www.w3.org/1999/02/22-rdf-syntax-ns#">
   <cc:Work>
    <dc:type rdf:resource="http://purl.org/dc/dcmitype/StillImage"/>
    <dc:date>2023-01-08T20:14:15.708874</dc:date>
    <dc:format>image/svg+xml</dc:format>
    <dc:creator>
     <cc:Agent>
      <dc:title>Matplotlib v3.4.1, https://matplotlib.org/</dc:title>
     </cc:Agent>
    </dc:creator>
   </cc:Work>
  </rdf:RDF>
 </metadata>
 <defs>
  <style type="text/css">*{stroke-linecap:butt;stroke-linejoin:round;}</style>
 </defs>
 <g id="figure_1">
  <g id="patch_1">
   <path d="M 0 295.578947 
L 432 295.578947 
L 432 0 
L 0 0 
z
" style="fill:#ffffff;"/>
  </g>
  <g id="axes_1">
   <g id="patch_2">
    <path d="M 54 263.065263 
L 388.8 263.065263 
L 388.8 35.469474 
L 54 35.469474 
z
" style="fill:#ffffff;"/>
   </g>
   <g id="matplotlib.axis_1">
    <g id="xtick_1">
     <g id="line2d_1">
      <path clip-path="url(#p230ea9f048)" d="M 54 263.065263 
L 54 35.469474 
" style="fill:none;stroke:#b0b0b0;stroke-linecap:square;stroke-width:0.8;"/>
     </g>
     <g id="line2d_2">
      <defs>
       <path d="M 0 0 
L 0 3.5 
" id="mc20b2e5d90" style="stroke:#000000;stroke-width:0.8;"/>
      </defs>
      <g>
       <use style="stroke:#000000;stroke-width:0.8;" x="54" xlink:href="#mc20b2e5d90" y="263.065263"/>
      </g>
     </g>
     <g id="text_1">
      <!-- −6 -->
      <g transform="translate(46.628906 277.663701)scale(0.1 -0.1)">
       <defs>
        <path d="M 678 2272 
L 4684 2272 
L 4684 1741 
L 678 1741 
L 678 2272 
z
" id="DejaVuSans-2212" transform="scale(0.015625)"/>
        <path d="M 2113 2584 
Q 1688 2584 1439 2293 
Q 1191 2003 1191 1497 
Q 1191 994 1439 701 
Q 1688 409 2113 409 
Q 2538 409 2786 701 
Q 3034 994 3034 1497 
Q 3034 2003 2786 2293 
Q 2538 2584 2113 2584 
z
M 3366 4563 
L 3366 3988 
Q 3128 4100 2886 4159 
Q 2644 4219 2406 4219 
Q 1781 4219 1451 3797 
Q 1122 3375 1075 2522 
Q 1259 2794 1537 2939 
Q 1816 3084 2150 3084 
Q 2853 3084 3261 2657 
Q 3669 2231 3669 1497 
Q 3669 778 3244 343 
Q 2819 -91 2113 -91 
Q 1303 -91 875 529 
Q 447 1150 447 2328 
Q 447 3434 972 4092 
Q 1497 4750 2381 4750 
Q 2619 4750 2861 4703 
Q 3103 4656 3366 4563 
z
" id="DejaVuSans-36" transform="scale(0.015625)"/>
       </defs>
       <use xlink:href="#DejaVuSans-2212"/>
       <use x="83.789062" xlink:href="#DejaVuSans-36"/>
      </g>
     </g>
    </g>
    <g id="xtick_2">
     <g id="line2d_3">
      <path clip-path="url(#p230ea9f048)" d="M 71.621053 263.065263 
L 71.621053 35.469474 
" style="fill:none;stroke:#b0b0b0;stroke-linecap:square;stroke-width:0.8;"/>
     </g>
     <g id="line2d_4">
      <g>
       <use style="stroke:#000000;stroke-width:0.8;" x="71.621053" xlink:href="#mc20b2e5d90" y="263.065263"/>
      </g>
     </g>
     <g id="text_2">
      <!-- −5 -->
      <g transform="translate(64.249959 277.663701)scale(0.1 -0.1)">
       <defs>
        <path d="M 691 4666 
L 3169 4666 
L 3169 4134 
L 1269 4134 
L 1269 2991 
Q 1406 3038 1543 3061 
Q 1681 3084 1819 3084 
Q 2600 3084 3056 2656 
Q 3513 2228 3513 1497 
Q 3513 744 3044 326 
Q 2575 -91 1722 -91 
Q 1428 -91 1123 -41 
Q 819 9 494 109 
L 494 744 
Q 775 591 1075 516 
Q 1375 441 1709 441 
Q 2250 441 2565 725 
Q 2881 1009 2881 1497 
Q 2881 1984 2565 2268 
Q 2250 2553 1709 2553 
Q 1456 2553 1204 2497 
Q 953 2441 691 2322 
L 691 4666 
z
" id="DejaVuSans-35" transform="scale(0.015625)"/>
       </defs>
       <use xlink:href="#DejaVuSans-2212"/>
       <use x="83.789062" xlink:href="#DejaVuSans-35"/>
      </g>
     </g>
    </g>
    <g id="xtick_3">
     <g id="line2d_5">
      <path clip-path="url(#p230ea9f048)" d="M 89.242105 263.065263 
L 89.242105 35.469474 
" style="fill:none;stroke:#b0b0b0;stroke-linecap:square;stroke-width:0.8;"/>
     </g>
     <g id="line2d_6">
      <g>
       <use style="stroke:#000000;stroke-width:0.8;" x="89.242105" xlink:href="#mc20b2e5d90" y="263.065263"/>
      </g>
     </g>
     <g id="text_3">
      <!-- −4 -->
      <g transform="translate(81.871012 277.663701)scale(0.1 -0.1)">
       <defs>
        <path d="M 2419 4116 
L 825 1625 
L 2419 1625 
L 2419 4116 
z
M 2253 4666 
L 3047 4666 
L 3047 1625 
L 3713 1625 
L 3713 1100 
L 3047 1100 
L 3047 0 
L 2419 0 
L 2419 1100 
L 313 1100 
L 313 1709 
L 2253 4666 
z
" id="DejaVuSans-34" transform="scale(0.015625)"/>
       </defs>
       <use xlink:href="#DejaVuSans-2212"/>
       <use x="83.789062" xlink:href="#DejaVuSans-34"/>
      </g>
     </g>
    </g>
    <g id="xtick_4">
     <g id="line2d_7">
      <path clip-path="url(#p230ea9f048)" d="M 106.863158 263.065263 
L 106.863158 35.469474 
" style="fill:none;stroke:#b0b0b0;stroke-linecap:square;stroke-width:0.8;"/>
     </g>
     <g id="line2d_8">
      <g>
       <use style="stroke:#000000;stroke-width:0.8;" x="106.863158" xlink:href="#mc20b2e5d90" y="263.065263"/>
      </g>
     </g>
     <g id="text_4">
      <!-- −3 -->
      <g transform="translate(99.492064 277.663701)scale(0.1 -0.1)">
       <defs>
        <path d="M 2597 2516 
Q 3050 2419 3304 2112 
Q 3559 1806 3559 1356 
Q 3559 666 3084 287 
Q 2609 -91 1734 -91 
Q 1441 -91 1130 -33 
Q 819 25 488 141 
L 488 750 
Q 750 597 1062 519 
Q 1375 441 1716 441 
Q 2309 441 2620 675 
Q 2931 909 2931 1356 
Q 2931 1769 2642 2001 
Q 2353 2234 1838 2234 
L 1294 2234 
L 1294 2753 
L 1863 2753 
Q 2328 2753 2575 2939 
Q 2822 3125 2822 3475 
Q 2822 3834 2567 4026 
Q 2313 4219 1838 4219 
Q 1578 4219 1281 4162 
Q 984 4106 628 3988 
L 628 4550 
Q 988 4650 1302 4700 
Q 1616 4750 1894 4750 
Q 2613 4750 3031 4423 
Q 3450 4097 3450 3541 
Q 3450 3153 3228 2886 
Q 3006 2619 2597 2516 
z
" id="DejaVuSans-33" transform="scale(0.015625)"/>
       </defs>
       <use xlink:href="#DejaVuSans-2212"/>
       <use x="83.789062" xlink:href="#DejaVuSans-33"/>
      </g>
     </g>
    </g>
    <g id="xtick_5">
     <g id="line2d_9">
      <path clip-path="url(#p230ea9f048)" d="M 124.484211 263.065263 
L 124.484211 35.469474 
" style="fill:none;stroke:#b0b0b0;stroke-linecap:square;stroke-width:0.8;"/>
     </g>
     <g id="line2d_10">
      <g>
       <use style="stroke:#000000;stroke-width:0.8;" x="124.484211" xlink:href="#mc20b2e5d90" y="263.065263"/>
      </g>
     </g>
     <g id="text_5">
      <!-- −2 -->
      <g transform="translate(117.113117 277.663701)scale(0.1 -0.1)">
       <defs>
        <path d="M 1228 531 
L 3431 531 
L 3431 0 
L 469 0 
L 469 531 
Q 828 903 1448 1529 
Q 2069 2156 2228 2338 
Q 2531 2678 2651 2914 
Q 2772 3150 2772 3378 
Q 2772 3750 2511 3984 
Q 2250 4219 1831 4219 
Q 1534 4219 1204 4116 
Q 875 4013 500 3803 
L 500 4441 
Q 881 4594 1212 4672 
Q 1544 4750 1819 4750 
Q 2544 4750 2975 4387 
Q 3406 4025 3406 3419 
Q 3406 3131 3298 2873 
Q 3191 2616 2906 2266 
Q 2828 2175 2409 1742 
Q 1991 1309 1228 531 
z
" id="DejaVuSans-32" transform="scale(0.015625)"/>
       </defs>
       <use xlink:href="#DejaVuSans-2212"/>
       <use x="83.789062" xlink:href="#DejaVuSans-32"/>
      </g>
     </g>
    </g>
    <g id="xtick_6">
     <g id="line2d_11">
      <path clip-path="url(#p230ea9f048)" d="M 142.105263 263.065263 
L 142.105263 35.469474 
" style="fill:none;stroke:#b0b0b0;stroke-linecap:square;stroke-width:0.8;"/>
     </g>
     <g id="line2d_12">
      <g>
       <use style="stroke:#000000;stroke-width:0.8;" x="142.105263" xlink:href="#mc20b2e5d90" y="263.065263"/>
      </g>
     </g>
     <g id="text_6">
      <!-- −1 -->
      <g transform="translate(134.734169 277.663701)scale(0.1 -0.1)">
       <defs>
        <path d="M 794 531 
L 1825 531 
L 1825 4091 
L 703 3866 
L 703 4441 
L 1819 4666 
L 2450 4666 
L 2450 531 
L 3481 531 
L 3481 0 
L 794 0 
L 794 531 
z
" id="DejaVuSans-31" transform="scale(0.015625)"/>
       </defs>
       <use xlink:href="#DejaVuSans-2212"/>
       <use x="83.789062" xlink:href="#DejaVuSans-31"/>
      </g>
     </g>
    </g>
    <g id="xtick_7">
     <g id="line2d_13">
      <path clip-path="url(#p230ea9f048)" d="M 159.726316 263.065263 
L 159.726316 35.469474 
" style="fill:none;stroke:#b0b0b0;stroke-linecap:square;stroke-width:0.8;"/>
     </g>
     <g id="line2d_14">
      <g>
       <use style="stroke:#000000;stroke-width:0.8;" x="159.726316" xlink:href="#mc20b2e5d90" y="263.065263"/>
      </g>
     </g>
     <g id="text_7">
      <!-- 0 -->
      <g transform="translate(156.545066 277.663701)scale(0.1 -0.1)">
       <defs>
        <path d="M 2034 4250 
Q 1547 4250 1301 3770 
Q 1056 3291 1056 2328 
Q 1056 1369 1301 889 
Q 1547 409 2034 409 
Q 2525 409 2770 889 
Q 3016 1369 3016 2328 
Q 3016 3291 2770 3770 
Q 2525 4250 2034 4250 
z
M 2034 4750 
Q 2819 4750 3233 4129 
Q 3647 3509 3647 2328 
Q 3647 1150 3233 529 
Q 2819 -91 2034 -91 
Q 1250 -91 836 529 
Q 422 1150 422 2328 
Q 422 3509 836 4129 
Q 1250 4750 2034 4750 
z
" id="DejaVuSans-30" transform="scale(0.015625)"/>
       </defs>
       <use xlink:href="#DejaVuSans-30"/>
      </g>
     </g>
    </g>
    <g id="xtick_8">
     <g id="line2d_15">
      <path clip-path="url(#p230ea9f048)" d="M 177.347368 263.065263 
L 177.347368 35.469474 
" style="fill:none;stroke:#b0b0b0;stroke-linecap:square;stroke-width:0.8;"/>
     </g>
     <g id="line2d_16">
      <g>
       <use style="stroke:#000000;stroke-width:0.8;" x="177.347368" xlink:href="#mc20b2e5d90" y="263.065263"/>
      </g>
     </g>
     <g id="text_8">
      <!-- 1 -->
      <g transform="translate(174.166118 277.663701)scale(0.1 -0.1)">
       <use xlink:href="#DejaVuSans-31"/>
      </g>
     </g>
    </g>
    <g id="xtick_9">
     <g id="line2d_17">
      <path clip-path="url(#p230ea9f048)" d="M 194.968421 263.065263 
L 194.968421 35.469474 
" style="fill:none;stroke:#b0b0b0;stroke-linecap:square;stroke-width:0.8;"/>
     </g>
     <g id="line2d_18">
      <g>
       <use style="stroke:#000000;stroke-width:0.8;" x="194.968421" xlink:href="#mc20b2e5d90" y="263.065263"/>
      </g>
     </g>
     <g id="text_9">
      <!-- 2 -->
      <g transform="translate(191.787171 277.663701)scale(0.1 -0.1)">
       <use xlink:href="#DejaVuSans-32"/>
      </g>
     </g>
    </g>
    <g id="xtick_10">
     <g id="line2d_19">
      <path clip-path="url(#p230ea9f048)" d="M 212.589474 263.065263 
L 212.589474 35.469474 
" style="fill:none;stroke:#b0b0b0;stroke-linecap:square;stroke-width:0.8;"/>
     </g>
     <g id="line2d_20">
      <g>
       <use style="stroke:#000000;stroke-width:0.8;" x="212.589474" xlink:href="#mc20b2e5d90" y="263.065263"/>
      </g>
     </g>
     <g id="text_10">
      <!-- 3 -->
      <g transform="translate(209.408224 277.663701)scale(0.1 -0.1)">
       <use xlink:href="#DejaVuSans-33"/>
      </g>
     </g>
    </g>
    <g id="xtick_11">
     <g id="line2d_21">
      <path clip-path="url(#p230ea9f048)" d="M 230.210526 263.065263 
L 230.210526 35.469474 
" style="fill:none;stroke:#b0b0b0;stroke-linecap:square;stroke-width:0.8;"/>
     </g>
     <g id="line2d_22">
      <g>
       <use style="stroke:#000000;stroke-width:0.8;" x="230.210526" xlink:href="#mc20b2e5d90" y="263.065263"/>
      </g>
     </g>
     <g id="text_11">
      <!-- 4 -->
      <g transform="translate(227.029276 277.663701)scale(0.1 -0.1)">
       <use xlink:href="#DejaVuSans-34"/>
      </g>
     </g>
    </g>
    <g id="xtick_12">
     <g id="line2d_23">
      <path clip-path="url(#p230ea9f048)" d="M 247.831579 263.065263 
L 247.831579 35.469474 
" style="fill:none;stroke:#b0b0b0;stroke-linecap:square;stroke-width:0.8;"/>
     </g>
     <g id="line2d_24">
      <g>
       <use style="stroke:#000000;stroke-width:0.8;" x="247.831579" xlink:href="#mc20b2e5d90" y="263.065263"/>
      </g>
     </g>
     <g id="text_12">
      <!-- 5 -->
      <g transform="translate(244.650329 277.663701)scale(0.1 -0.1)">
       <use xlink:href="#DejaVuSans-35"/>
      </g>
     </g>
    </g>
    <g id="xtick_13">
     <g id="line2d_25">
      <path clip-path="url(#p230ea9f048)" d="M 265.452632 263.065263 
L 265.452632 35.469474 
" style="fill:none;stroke:#b0b0b0;stroke-linecap:square;stroke-width:0.8;"/>
     </g>
     <g id="line2d_26">
      <g>
       <use style="stroke:#000000;stroke-width:0.8;" x="265.452632" xlink:href="#mc20b2e5d90" y="263.065263"/>
      </g>
     </g>
     <g id="text_13">
      <!-- 6 -->
      <g transform="translate(262.271382 277.663701)scale(0.1 -0.1)">
       <use xlink:href="#DejaVuSans-36"/>
      </g>
     </g>
    </g>
    <g id="xtick_14">
     <g id="line2d_27">
      <path clip-path="url(#p230ea9f048)" d="M 283.073684 263.065263 
L 283.073684 35.469474 
" style="fill:none;stroke:#b0b0b0;stroke-linecap:square;stroke-width:0.8;"/>
     </g>
     <g id="line2d_28">
      <g>
       <use style="stroke:#000000;stroke-width:0.8;" x="283.073684" xlink:href="#mc20b2e5d90" y="263.065263"/>
      </g>
     </g>
     <g id="text_14">
      <!-- 7 -->
      <g transform="translate(279.892434 277.663701)scale(0.1 -0.1)">
       <defs>
        <path d="M 525 4666 
L 3525 4666 
L 3525 4397 
L 1831 0 
L 1172 0 
L 2766 4134 
L 525 4134 
L 525 4666 
z
" id="DejaVuSans-37" transform="scale(0.015625)"/>
       </defs>
       <use xlink:href="#DejaVuSans-37"/>
      </g>
     </g>
    </g>
    <g id="xtick_15">
     <g id="line2d_29">
      <path clip-path="url(#p230ea9f048)" d="M 300.694737 263.065263 
L 300.694737 35.469474 
" style="fill:none;stroke:#b0b0b0;stroke-linecap:square;stroke-width:0.8;"/>
     </g>
     <g id="line2d_30">
      <g>
       <use style="stroke:#000000;stroke-width:0.8;" x="300.694737" xlink:href="#mc20b2e5d90" y="263.065263"/>
      </g>
     </g>
     <g id="text_15">
      <!-- 8 -->
      <g transform="translate(297.513487 277.663701)scale(0.1 -0.1)">
       <defs>
        <path d="M 2034 2216 
Q 1584 2216 1326 1975 
Q 1069 1734 1069 1313 
Q 1069 891 1326 650 
Q 1584 409 2034 409 
Q 2484 409 2743 651 
Q 3003 894 3003 1313 
Q 3003 1734 2745 1975 
Q 2488 2216 2034 2216 
z
M 1403 2484 
Q 997 2584 770 2862 
Q 544 3141 544 3541 
Q 544 4100 942 4425 
Q 1341 4750 2034 4750 
Q 2731 4750 3128 4425 
Q 3525 4100 3525 3541 
Q 3525 3141 3298 2862 
Q 3072 2584 2669 2484 
Q 3125 2378 3379 2068 
Q 3634 1759 3634 1313 
Q 3634 634 3220 271 
Q 2806 -91 2034 -91 
Q 1263 -91 848 271 
Q 434 634 434 1313 
Q 434 1759 690 2068 
Q 947 2378 1403 2484 
z
M 1172 3481 
Q 1172 3119 1398 2916 
Q 1625 2713 2034 2713 
Q 2441 2713 2670 2916 
Q 2900 3119 2900 3481 
Q 2900 3844 2670 4047 
Q 2441 4250 2034 4250 
Q 1625 4250 1398 4047 
Q 1172 3844 1172 3481 
z
" id="DejaVuSans-38" transform="scale(0.015625)"/>
       </defs>
       <use xlink:href="#DejaVuSans-38"/>
      </g>
     </g>
    </g>
    <g id="xtick_16">
     <g id="line2d_31">
      <path clip-path="url(#p230ea9f048)" d="M 318.315789 263.065263 
L 318.315789 35.469474 
" style="fill:none;stroke:#b0b0b0;stroke-linecap:square;stroke-width:0.8;"/>
     </g>
     <g id="line2d_32">
      <g>
       <use style="stroke:#000000;stroke-width:0.8;" x="318.315789" xlink:href="#mc20b2e5d90" y="263.065263"/>
      </g>
     </g>
     <g id="text_16">
      <!-- 9 -->
      <g transform="translate(315.134539 277.663701)scale(0.1 -0.1)">
       <defs>
        <path d="M 703 97 
L 703 672 
Q 941 559 1184 500 
Q 1428 441 1663 441 
Q 2288 441 2617 861 
Q 2947 1281 2994 2138 
Q 2813 1869 2534 1725 
Q 2256 1581 1919 1581 
Q 1219 1581 811 2004 
Q 403 2428 403 3163 
Q 403 3881 828 4315 
Q 1253 4750 1959 4750 
Q 2769 4750 3195 4129 
Q 3622 3509 3622 2328 
Q 3622 1225 3098 567 
Q 2575 -91 1691 -91 
Q 1453 -91 1209 -44 
Q 966 3 703 97 
z
M 1959 2075 
Q 2384 2075 2632 2365 
Q 2881 2656 2881 3163 
Q 2881 3666 2632 3958 
Q 2384 4250 1959 4250 
Q 1534 4250 1286 3958 
Q 1038 3666 1038 3163 
Q 1038 2656 1286 2365 
Q 1534 2075 1959 2075 
z
" id="DejaVuSans-39" transform="scale(0.015625)"/>
       </defs>
       <use xlink:href="#DejaVuSans-39"/>
      </g>
     </g>
    </g>
    <g id="xtick_17">
     <g id="line2d_33">
      <path clip-path="url(#p230ea9f048)" d="M 335.936842 263.065263 
L 335.936842 35.469474 
" style="fill:none;stroke:#b0b0b0;stroke-linecap:square;stroke-width:0.8;"/>
     </g>
     <g id="line2d_34">
      <g>
       <use style="stroke:#000000;stroke-width:0.8;" x="335.936842" xlink:href="#mc20b2e5d90" y="263.065263"/>
      </g>
     </g>
     <g id="text_17">
      <!-- 10 -->
      <g transform="translate(329.574342 277.663701)scale(0.1 -0.1)">
       <use xlink:href="#DejaVuSans-31"/>
       <use x="63.623047" xlink:href="#DejaVuSans-30"/>
      </g>
     </g>
    </g>
    <g id="xtick_18">
     <g id="line2d_35">
      <path clip-path="url(#p230ea9f048)" d="M 353.557895 263.065263 
L 353.557895 35.469474 
" style="fill:none;stroke:#b0b0b0;stroke-linecap:square;stroke-width:0.8;"/>
     </g>
     <g id="line2d_36">
      <g>
       <use style="stroke:#000000;stroke-width:0.8;" x="353.557895" xlink:href="#mc20b2e5d90" y="263.065263"/>
      </g>
     </g>
     <g id="text_18">
      <!-- 11 -->
      <g transform="translate(347.195395 277.663701)scale(0.1 -0.1)">
       <use xlink:href="#DejaVuSans-31"/>
       <use x="63.623047" xlink:href="#DejaVuSans-31"/>
      </g>
     </g>
    </g>
    <g id="xtick_19">
     <g id="line2d_37">
      <path clip-path="url(#p230ea9f048)" d="M 371.178947 263.065263 
L 371.178947 35.469474 
" style="fill:none;stroke:#b0b0b0;stroke-linecap:square;stroke-width:0.8;"/>
     </g>
     <g id="line2d_38">
      <g>
       <use style="stroke:#000000;stroke-width:0.8;" x="371.178947" xlink:href="#mc20b2e5d90" y="263.065263"/>
      </g>
     </g>
     <g id="text_19">
      <!-- 12 -->
      <g transform="translate(364.816447 277.663701)scale(0.1 -0.1)">
       <use xlink:href="#DejaVuSans-31"/>
       <use x="63.623047" xlink:href="#DejaVuSans-32"/>
      </g>
     </g>
    </g>
   </g>
   <g id="matplotlib.axis_2">
    <g id="ytick_1">
     <g id="line2d_39">
      <path clip-path="url(#p230ea9f048)" d="M 54 263.065263 
L 388.8 263.065263 
" style="fill:none;stroke:#b0b0b0;stroke-linecap:square;stroke-width:0.8;"/>
     </g>
     <g id="line2d_40">
      <defs>
       <path d="M 0 0 
L -3.5 0 
" id="m81b8e61f0d" style="stroke:#000000;stroke-width:0.8;"/>
      </defs>
      <g>
       <use style="stroke:#000000;stroke-width:0.8;" x="54" xlink:href="#m81b8e61f0d" y="263.065263"/>
      </g>
     </g>
     <g id="text_20">
      <!-- −5 -->
      <g transform="translate(32.257812 266.864482)scale(0.1 -0.1)">
       <use xlink:href="#DejaVuSans-2212"/>
       <use x="83.789062" xlink:href="#DejaVuSans-35"/>
      </g>
     </g>
    </g>
    <g id="ytick_2">
     <g id="line2d_41">
      <path clip-path="url(#p230ea9f048)" d="M 54 245.557895 
L 388.8 245.557895 
" style="fill:none;stroke:#b0b0b0;stroke-linecap:square;stroke-width:0.8;"/>
     </g>
     <g id="line2d_42">
      <g>
       <use style="stroke:#000000;stroke-width:0.8;" x="54" xlink:href="#m81b8e61f0d" y="245.557895"/>
      </g>
     </g>
     <g id="text_21">
      <!-- −4 -->
      <g transform="translate(32.257812 249.357113)scale(0.1 -0.1)">
       <use xlink:href="#DejaVuSans-2212"/>
       <use x="83.789062" xlink:href="#DejaVuSans-34"/>
      </g>
     </g>
    </g>
    <g id="ytick_3">
     <g id="line2d_43">
      <path clip-path="url(#p230ea9f048)" d="M 54 228.050526 
L 388.8 228.050526 
" style="fill:none;stroke:#b0b0b0;stroke-linecap:square;stroke-width:0.8;"/>
     </g>
     <g id="line2d_44">
      <g>
       <use style="stroke:#000000;stroke-width:0.8;" x="54" xlink:href="#m81b8e61f0d" y="228.050526"/>
      </g>
     </g>
     <g id="text_22">
      <!-- −3 -->
      <g transform="translate(32.257812 231.849745)scale(0.1 -0.1)">
       <use xlink:href="#DejaVuSans-2212"/>
       <use x="83.789062" xlink:href="#DejaVuSans-33"/>
      </g>
     </g>
    </g>
    <g id="ytick_4">
     <g id="line2d_45">
      <path clip-path="url(#p230ea9f048)" d="M 54 210.543158 
L 388.8 210.543158 
" style="fill:none;stroke:#b0b0b0;stroke-linecap:square;stroke-width:0.8;"/>
     </g>
     <g id="line2d_46">
      <g>
       <use style="stroke:#000000;stroke-width:0.8;" x="54" xlink:href="#m81b8e61f0d" y="210.543158"/>
      </g>
     </g>
     <g id="text_23">
      <!-- −2 -->
      <g transform="translate(32.257812 214.342377)scale(0.1 -0.1)">
       <use xlink:href="#DejaVuSans-2212"/>
       <use x="83.789062" xlink:href="#DejaVuSans-32"/>
      </g>
     </g>
    </g>
    <g id="ytick_5">
     <g id="line2d_47">
      <path clip-path="url(#p230ea9f048)" d="M 54 193.035789 
L 388.8 193.035789 
" style="fill:none;stroke:#b0b0b0;stroke-linecap:square;stroke-width:0.8;"/>
     </g>
     <g id="line2d_48">
      <g>
       <use style="stroke:#000000;stroke-width:0.8;" x="54" xlink:href="#m81b8e61f0d" y="193.035789"/>
      </g>
     </g>
     <g id="text_24">
      <!-- −1 -->
      <g transform="translate(32.257812 196.835008)scale(0.1 -0.1)">
       <use xlink:href="#DejaVuSans-2212"/>
       <use x="83.789062" xlink:href="#DejaVuSans-31"/>
      </g>
     </g>
    </g>
    <g id="ytick_6">
     <g id="line2d_49">
      <path clip-path="url(#p230ea9f048)" d="M 54 175.528421 
L 388.8 175.528421 
" style="fill:none;stroke:#b0b0b0;stroke-linecap:square;stroke-width:0.8;"/>
     </g>
     <g id="line2d_50">
      <g>
       <use style="stroke:#000000;stroke-width:0.8;" x="54" xlink:href="#m81b8e61f0d" y="175.528421"/>
      </g>
     </g>
     <g id="text_25">
      <!-- 0 -->
      <g transform="translate(40.6375 179.32764)scale(0.1 -0.1)">
       <use xlink:href="#DejaVuSans-30"/>
      </g>
     </g>
    </g>
    <g id="ytick_7">
     <g id="line2d_51">
      <path clip-path="url(#p230ea9f048)" d="M 54 158.021053 
L 388.8 158.021053 
" style="fill:none;stroke:#b0b0b0;stroke-linecap:square;stroke-width:0.8;"/>
     </g>
     <g id="line2d_52">
      <g>
       <use style="stroke:#000000;stroke-width:0.8;" x="54" xlink:href="#m81b8e61f0d" y="158.021053"/>
      </g>
     </g>
     <g id="text_26">
      <!-- 1 -->
      <g transform="translate(40.6375 161.820271)scale(0.1 -0.1)">
       <use xlink:href="#DejaVuSans-31"/>
      </g>
     </g>
    </g>
    <g id="ytick_8">
     <g id="line2d_53">
      <path clip-path="url(#p230ea9f048)" d="M 54 140.513684 
L 388.8 140.513684 
" style="fill:none;stroke:#b0b0b0;stroke-linecap:square;stroke-width:0.8;"/>
     </g>
     <g id="line2d_54">
      <g>
       <use style="stroke:#000000;stroke-width:0.8;" x="54" xlink:href="#m81b8e61f0d" y="140.513684"/>
      </g>
     </g>
     <g id="text_27">
      <!-- 2 -->
      <g transform="translate(40.6375 144.312903)scale(0.1 -0.1)">
       <use xlink:href="#DejaVuSans-32"/>
      </g>
     </g>
    </g>
    <g id="ytick_9">
     <g id="line2d_55">
      <path clip-path="url(#p230ea9f048)" d="M 54 123.006316 
L 388.8 123.006316 
" style="fill:none;stroke:#b0b0b0;stroke-linecap:square;stroke-width:0.8;"/>
     </g>
     <g id="line2d_56">
      <g>
       <use style="stroke:#000000;stroke-width:0.8;" x="54" xlink:href="#m81b8e61f0d" y="123.006316"/>
      </g>
     </g>
     <g id="text_28">
      <!-- 3 -->
      <g transform="translate(40.6375 126.805535)scale(0.1 -0.1)">
       <use xlink:href="#DejaVuSans-33"/>
      </g>
     </g>
    </g>
    <g id="ytick_10">
     <g id="line2d_57">
      <path clip-path="url(#p230ea9f048)" d="M 54 105.498947 
L 388.8 105.498947 
" style="fill:none;stroke:#b0b0b0;stroke-linecap:square;stroke-width:0.8;"/>
     </g>
     <g id="line2d_58">
      <g>
       <use style="stroke:#000000;stroke-width:0.8;" x="54" xlink:href="#m81b8e61f0d" y="105.498947"/>
      </g>
     </g>
     <g id="text_29">
      <!-- 4 -->
      <g transform="translate(40.6375 109.298166)scale(0.1 -0.1)">
       <use xlink:href="#DejaVuSans-34"/>
      </g>
     </g>
    </g>
    <g id="ytick_11">
     <g id="line2d_59">
      <path clip-path="url(#p230ea9f048)" d="M 54 87.991579 
L 388.8 87.991579 
" style="fill:none;stroke:#b0b0b0;stroke-linecap:square;stroke-width:0.8;"/>
     </g>
     <g id="line2d_60">
      <g>
       <use style="stroke:#000000;stroke-width:0.8;" x="54" xlink:href="#m81b8e61f0d" y="87.991579"/>
      </g>
     </g>
     <g id="text_30">
      <!-- 5 -->
      <g transform="translate(40.6375 91.790798)scale(0.1 -0.1)">
       <use xlink:href="#DejaVuSans-35"/>
      </g>
     </g>
    </g>
    <g id="ytick_12">
     <g id="line2d_61">
      <path clip-path="url(#p230ea9f048)" d="M 54 70.484211 
L 388.8 70.484211 
" style="fill:none;stroke:#b0b0b0;stroke-linecap:square;stroke-width:0.8;"/>
     </g>
     <g id="line2d_62">
      <g>
       <use style="stroke:#000000;stroke-width:0.8;" x="54" xlink:href="#m81b8e61f0d" y="70.484211"/>
      </g>
     </g>
     <g id="text_31">
      <!-- 6 -->
      <g transform="translate(40.6375 74.283429)scale(0.1 -0.1)">
       <use xlink:href="#DejaVuSans-36"/>
      </g>
     </g>
    </g>
    <g id="ytick_13">
     <g id="line2d_63">
      <path clip-path="url(#p230ea9f048)" d="M 54 52.976842 
L 388.8 52.976842 
" style="fill:none;stroke:#b0b0b0;stroke-linecap:square;stroke-width:0.8;"/>
     </g>
     <g id="line2d_64">
      <g>
       <use style="stroke:#000000;stroke-width:0.8;" x="54" xlink:href="#m81b8e61f0d" y="52.976842"/>
      </g>
     </g>
     <g id="text_32">
      <!-- 7 -->
      <g transform="translate(40.6375 56.776061)scale(0.1 -0.1)">
       <use xlink:href="#DejaVuSans-37"/>
      </g>
     </g>
    </g>
   </g>
   <g id="PathCollection_1">
    <defs>
     <path d="M -3 3 
L 3 -3 
M -3 -3 
L 3 3 
" id="mcccaa950ee" style="stroke:#000000;stroke-width:1.5;"/>
    </defs>
    <g clip-path="url(#p230ea9f048)">
     <use style="stroke:#000000;stroke-width:1.5;" x="159.726316" xlink:href="#mcccaa950ee" y="175.528421"/>
    </g>
   </g>
   <g id="PathCollection_2">
    <defs>
     <path d="M 0 3 
C 0.795609 3 1.55874 2.683901 2.12132 2.12132 
C 2.683901 1.55874 3 0.795609 3 0 
C 3 -0.795609 2.683901 -1.55874 2.12132 -2.12132 
C 1.55874 -2.683901 0.795609 -3 0 -3 
C -0.795609 -3 -1.55874 -2.683901 -2.12132 -2.12132 
C -2.683901 -1.55874 -3 -0.795609 -3 0 
C -3 0.795609 -2.683901 1.55874 -2.12132 2.12132 
C -1.55874 2.683901 -0.795609 3 0 3 
z
" id="ma97fa79531" style="stroke:#1f77b4;"/>
    </defs>
    <g clip-path="url(#p230ea9f048)">
     <use style="fill:#1f77b4;stroke:#1f77b4;" x="265.452632" xlink:href="#ma97fa79531" y="105.498947"/>
     <use style="fill:#1f77b4;stroke:#1f77b4;" x="212.589474" xlink:href="#ma97fa79531" y="158.021053"/>
     <use style="fill:#1f77b4;stroke:#1f77b4;" x="177.347368" xlink:href="#ma97fa79531" y="140.513684"/>
     <use style="fill:#1f77b4;stroke:#1f77b4;" x="142.105263" xlink:href="#ma97fa79531" y="87.991579"/>
     <use style="fill:#1f77b4;stroke:#1f77b4;" x="124.484211" xlink:href="#ma97fa79531" y="87.991579"/>
     <use style="fill:#1f77b4;stroke:#1f77b4;" x="106.863158" xlink:href="#ma97fa79531" y="105.498947"/>
     <use style="fill:#1f77b4;stroke:#1f77b4;" x="89.242105" xlink:href="#ma97fa79531" y="105.498947"/>
     <use style="fill:#1f77b4;stroke:#1f77b4;" x="71.621053" xlink:href="#ma97fa79531" y="123.006316"/>
     <use style="fill:#1f77b4;stroke:#1f77b4;" x="71.621053" xlink:href="#ma97fa79531" y="140.513684"/>
     <use style="fill:#1f77b4;stroke:#1f77b4;" x="124.484211" xlink:href="#ma97fa79531" y="140.513684"/>
     <use style="fill:#1f77b4;stroke:#1f77b4;" x="71.621053" xlink:href="#ma97fa79531" y="158.021053"/>
     <use style="fill:#1f77b4;stroke:#1f77b4;" x="89.242105" xlink:href="#ma97fa79531" y="175.528421"/>
     <use style="fill:#1f77b4;stroke:#1f77b4;" x="124.484211" xlink:href="#ma97fa79531" y="158.021053"/>
     <use style="fill:#1f77b4;stroke:#1f77b4;" x="142.105263" xlink:href="#ma97fa79531" y="175.528421"/>
     <use style="fill:#1f77b4;stroke:#1f77b4;" x="159.726316" xlink:href="#ma97fa79531" y="228.050526"/>
     <use style="fill:#1f77b4;stroke:#1f77b4;" x="142.105263" xlink:href="#ma97fa79531" y="245.557895"/>
     <use style="fill:#1f77b4;stroke:#1f77b4;" x="177.347368" xlink:href="#ma97fa79531" y="245.557895"/>
     <use style="fill:#1f77b4;stroke:#1f77b4;" x="194.968421" xlink:href="#ma97fa79531" y="228.050526"/>
     <use style="fill:#1f77b4;stroke:#1f77b4;" x="177.347368" xlink:href="#ma97fa79531" y="210.543158"/>
     <use style="fill:#1f77b4;stroke:#1f77b4;" x="212.589474" xlink:href="#ma97fa79531" y="193.035789"/>
     <use style="fill:#1f77b4;stroke:#1f77b4;" x="247.831579" xlink:href="#ma97fa79531" y="158.021053"/>
    </g>
   </g>
   <g id="PathCollection_3">
    <defs>
     <path d="M 0 3 
C 0.795609 3 1.55874 2.683901 2.12132 2.12132 
C 2.683901 1.55874 3 0.795609 3 0 
C 3 -0.795609 2.683901 -1.55874 2.12132 -2.12132 
C 1.55874 -2.683901 0.795609 -3 0 -3 
C -0.795609 -3 -1.55874 -2.683901 -2.12132 -2.12132 
C -2.683901 -1.55874 -3 -0.795609 -3 0 
C -3 0.795609 -2.683901 1.55874 -2.12132 2.12132 
C -1.55874 2.683901 -0.795609 3 0 3 
z
" id="me5dc278314" style="stroke:#d62728;"/>
    </defs>
    <g clip-path="url(#p230ea9f048)">
     <use style="fill:#d62728;stroke:#d62728;" x="371.178947" xlink:href="#me5dc278314" y="70.484211"/>
     <use style="fill:#d62728;stroke:#d62728;" x="318.315789" xlink:href="#me5dc278314" y="123.006316"/>
     <use style="fill:#d62728;stroke:#d62728;" x="283.073684" xlink:href="#me5dc278314" y="105.498947"/>
     <use style="fill:#d62728;stroke:#d62728;" x="247.831579" xlink:href="#me5dc278314" y="52.976842"/>
     <use style="fill:#d62728;stroke:#d62728;" x="230.210526" xlink:href="#me5dc278314" y="52.976842"/>
     <use style="fill:#d62728;stroke:#d62728;" x="212.589474" xlink:href="#me5dc278314" y="70.484211"/>
     <use style="fill:#d62728;stroke:#d62728;" x="194.968421" xlink:href="#me5dc278314" y="70.484211"/>
     <use style="fill:#d62728;stroke:#d62728;" x="177.347368" xlink:href="#me5dc278314" y="87.991579"/>
     <use style="fill:#d62728;stroke:#d62728;" x="177.347368" xlink:href="#me5dc278314" y="105.498947"/>
     <use style="fill:#d62728;stroke:#d62728;" x="230.210526" xlink:href="#me5dc278314" y="105.498947"/>
     <use style="fill:#d62728;stroke:#d62728;" x="177.347368" xlink:href="#me5dc278314" y="123.006316"/>
     <use style="fill:#d62728;stroke:#d62728;" x="194.968421" xlink:href="#me5dc278314" y="140.513684"/>
     <use style="fill:#d62728;stroke:#d62728;" x="230.210526" xlink:href="#me5dc278314" y="123.006316"/>
     <use style="fill:#d62728;stroke:#d62728;" x="247.831579" xlink:href="#me5dc278314" y="140.513684"/>
     <use style="fill:#d62728;stroke:#d62728;" x="265.452632" xlink:href="#me5dc278314" y="193.035789"/>
     <use style="fill:#d62728;stroke:#d62728;" x="247.831579" xlink:href="#me5dc278314" y="210.543158"/>
     <use style="fill:#d62728;stroke:#d62728;" x="283.073684" xlink:href="#me5dc278314" y="210.543158"/>
     <use style="fill:#d62728;stroke:#d62728;" x="300.694737" xlink:href="#me5dc278314" y="193.035789"/>
     <use style="fill:#d62728;stroke:#d62728;" x="283.073684" xlink:href="#me5dc278314" y="175.528421"/>
     <use style="fill:#d62728;stroke:#d62728;" x="318.315789" xlink:href="#me5dc278314" y="158.021053"/>
     <use style="fill:#d62728;stroke:#d62728;" x="353.557895" xlink:href="#me5dc278314" y="123.006316"/>
    </g>
   </g>
   <g id="line2d_65">
    <path clip-path="url(#p230ea9f048)" d="M 54 175.528421 
L 388.8 175.528421 
" style="fill:none;stroke:#000000;stroke-linecap:square;stroke-width:2;"/>
   </g>
   <g id="line2d_66">
    <path clip-path="url(#p230ea9f048)" d="M 159.726316 263.065263 
L 159.726316 35.469474 
" style="fill:none;stroke:#000000;stroke-linecap:square;stroke-width:2;"/>
   </g>
   <g id="line2d_67">
    <path clip-path="url(#p230ea9f048)" d="M 265.452632 105.498947 
L 212.589474 158.021053 
" style="fill:none;stroke:#1f77b4;stroke-linecap:square;stroke-width:1.5;"/>
   </g>
   <g id="line2d_68">
    <path clip-path="url(#p230ea9f048)" d="M 212.589474 158.021053 
L 177.347368 140.513684 
" style="fill:none;stroke:#1f77b4;stroke-linecap:square;stroke-width:1.5;"/>
   </g>
   <g id="line2d_69">
    <path clip-path="url(#p230ea9f048)" d="M 177.347368 140.513684 
L 142.105263 87.991579 
" style="fill:none;stroke:#1f77b4;stroke-linecap:square;stroke-width:1.5;"/>
   </g>
   <g id="line2d_70">
    <path clip-path="url(#p230ea9f048)" d="M 142.105263 87.991579 
L 124.484211 87.991579 
" style="fill:none;stroke:#1f77b4;stroke-linecap:square;stroke-width:1.5;"/>
   </g>
   <g id="line2d_71">
    <path clip-path="url(#p230ea9f048)" d="M 124.484211 87.991579 
L 106.863158 105.498947 
" style="fill:none;stroke:#1f77b4;stroke-linecap:square;stroke-width:1.5;"/>
   </g>
   <g id="line2d_72">
    <path clip-path="url(#p230ea9f048)" d="M 106.863158 105.498947 
L 89.242105 105.498947 
" style="fill:none;stroke:#1f77b4;stroke-linecap:square;stroke-width:1.5;"/>
   </g>
   <g id="line2d_73">
    <path clip-path="url(#p230ea9f048)" d="M 89.242105 105.498947 
L 71.621053 123.006316 
" style="fill:none;stroke:#1f77b4;stroke-linecap:square;stroke-width:1.5;"/>
   </g>
   <g id="line2d_74">
    <path clip-path="url(#p230ea9f048)" d="M 71.621053 123.006316 
L 71.621053 140.513684 
" style="fill:none;stroke:#1f77b4;stroke-linecap:square;stroke-width:1.5;"/>
   </g>
   <g id="line2d_75">
    <path clip-path="url(#p230ea9f048)" d="M 71.621053 140.513684 
L 124.484211 140.513684 
" style="fill:none;stroke:#1f77b4;stroke-linecap:square;stroke-width:1.5;"/>
   </g>
   <g id="line2d_76">
    <path clip-path="url(#p230ea9f048)" d="M 124.484211 140.513684 
L 71.621053 158.021053 
" style="fill:none;stroke:#1f77b4;stroke-linecap:square;stroke-width:1.5;"/>
   </g>
   <g id="line2d_77">
    <path clip-path="url(#p230ea9f048)" d="M 71.621053 158.021053 
L 89.242105 175.528421 
" style="fill:none;stroke:#1f77b4;stroke-linecap:square;stroke-width:1.5;"/>
   </g>
   <g id="line2d_78">
    <path clip-path="url(#p230ea9f048)" d="M 89.242105 175.528421 
L 124.484211 158.021053 
" style="fill:none;stroke:#1f77b4;stroke-linecap:square;stroke-width:1.5;"/>
   </g>
   <g id="line2d_79">
    <path clip-path="url(#p230ea9f048)" d="M 124.484211 158.021053 
L 142.105263 175.528421 
" style="fill:none;stroke:#1f77b4;stroke-linecap:square;stroke-width:1.5;"/>
   </g>
   <g id="line2d_80">
    <path clip-path="url(#p230ea9f048)" d="M 142.105263 175.528421 
L 159.726316 228.050526 
" style="fill:none;stroke:#1f77b4;stroke-linecap:square;stroke-width:1.5;"/>
   </g>
   <g id="line2d_81">
    <path clip-path="url(#p230ea9f048)" d="M 159.726316 228.050526 
L 142.105263 245.557895 
" style="fill:none;stroke:#1f77b4;stroke-linecap:square;stroke-width:1.5;"/>
   </g>
   <g id="line2d_82">
    <path clip-path="url(#p230ea9f048)" d="M 142.105263 245.557895 
L 177.347368 245.557895 
" style="fill:none;stroke:#1f77b4;stroke-linecap:square;stroke-width:1.5;"/>
   </g>
   <g id="line2d_83">
    <path clip-path="url(#p230ea9f048)" d="M 177.347368 245.557895 
L 194.968421 228.050526 
" style="fill:none;stroke:#1f77b4;stroke-linecap:square;stroke-width:1.5;"/>
   </g>
   <g id="line2d_84">
    <path clip-path="url(#p230ea9f048)" d="M 194.968421 228.050526 
L 177.347368 210.543158 
" style="fill:none;stroke:#1f77b4;stroke-linecap:square;stroke-width:1.5;"/>
   </g>
   <g id="line2d_85">
    <path clip-path="url(#p230ea9f048)" d="M 177.347368 210.543158 
L 212.589474 193.035789 
" style="fill:none;stroke:#1f77b4;stroke-linecap:square;stroke-width:1.5;"/>
   </g>
   <g id="line2d_86">
    <path clip-path="url(#p230ea9f048)" d="M 212.589474 193.035789 
L 247.831579 158.021053 
" style="fill:none;stroke:#1f77b4;stroke-linecap:square;stroke-width:1.5;"/>
   </g>
   <g id="line2d_87">
    <path clip-path="url(#p230ea9f048)" d="M 247.831579 158.021053 
L 265.452632 105.498947 
" style="fill:none;stroke:#1f77b4;stroke-linecap:square;stroke-width:1.5;"/>
   </g>
   <g id="line2d_88">
    <path clip-path="url(#p230ea9f048)" d="M 371.178947 70.484211 
L 318.315789 123.006316 
" style="fill:none;stroke:#d62728;stroke-linecap:square;stroke-width:1.5;"/>
   </g>
   <g id="line2d_89">
    <path clip-path="url(#p230ea9f048)" d="M 318.315789 123.006316 
L 283.073684 105.498947 
" style="fill:none;stroke:#d62728;stroke-linecap:square;stroke-width:1.5;"/>
   </g>
   <g id="line2d_90">
    <path clip-path="url(#p230ea9f048)" d="M 283.073684 105.498947 
L 247.831579 52.976842 
" style="fill:none;stroke:#d62728;stroke-linecap:square;stroke-width:1.5;"/>
   </g>
   <g id="line2d_91">
    <path clip-path="url(#p230ea9f048)" d="M 247.831579 52.976842 
L 230.210526 52.976842 
" style="fill:none;stroke:#d62728;stroke-linecap:square;stroke-width:1.5;"/>
   </g>
   <g id="line2d_92">
    <path clip-path="url(#p230ea9f048)" d="M 230.210526 52.976842 
L 212.589474 70.484211 
" style="fill:none;stroke:#d62728;stroke-linecap:square;stroke-width:1.5;"/>
   </g>
   <g id="line2d_93">
    <path clip-path="url(#p230ea9f048)" d="M 212.589474 70.484211 
L 194.968421 70.484211 
" style="fill:none;stroke:#d62728;stroke-linecap:square;stroke-width:1.5;"/>
   </g>
   <g id="line2d_94">
    <path clip-path="url(#p230ea9f048)" d="M 194.968421 70.484211 
L 177.347368 87.991579 
" style="fill:none;stroke:#d62728;stroke-linecap:square;stroke-width:1.5;"/>
   </g>
   <g id="line2d_95">
    <path clip-path="url(#p230ea9f048)" d="M 177.347368 87.991579 
L 177.347368 105.498947 
" style="fill:none;stroke:#d62728;stroke-linecap:square;stroke-width:1.5;"/>
   </g>
   <g id="line2d_96">
    <path clip-path="url(#p230ea9f048)" d="M 177.347368 105.498947 
L 230.210526 105.498947 
" style="fill:none;stroke:#d62728;stroke-linecap:square;stroke-width:1.5;"/>
   </g>
   <g id="line2d_97">
    <path clip-path="url(#p230ea9f048)" d="M 230.210526 105.498947 
L 177.347368 123.006316 
" style="fill:none;stroke:#d62728;stroke-linecap:square;stroke-width:1.5;"/>
   </g>
   <g id="line2d_98">
    <path clip-path="url(#p230ea9f048)" d="M 177.347368 123.006316 
L 194.968421 140.513684 
" style="fill:none;stroke:#d62728;stroke-linecap:square;stroke-width:1.5;"/>
   </g>
   <g id="line2d_99">
    <path clip-path="url(#p230ea9f048)" d="M 194.968421 140.513684 
L 230.210526 123.006316 
" style="fill:none;stroke:#d62728;stroke-linecap:square;stroke-width:1.5;"/>
   </g>
   <g id="line2d_100">
    <path clip-path="url(#p230ea9f048)" d="M 230.210526 123.006316 
L 247.831579 140.513684 
" style="fill:none;stroke:#d62728;stroke-linecap:square;stroke-width:1.5;"/>
   </g>
   <g id="line2d_101">
    <path clip-path="url(#p230ea9f048)" d="M 247.831579 140.513684 
L 265.452632 193.035789 
" style="fill:none;stroke:#d62728;stroke-linecap:square;stroke-width:1.5;"/>
   </g>
   <g id="line2d_102">
    <path clip-path="url(#p230ea9f048)" d="M 265.452632 193.035789 
L 247.831579 210.543158 
" style="fill:none;stroke:#d62728;stroke-linecap:square;stroke-width:1.5;"/>
   </g>
   <g id="line2d_103">
    <path clip-path="url(#p230ea9f048)" d="M 247.831579 210.543158 
L 283.073684 210.543158 
" style="fill:none;stroke:#d62728;stroke-linecap:square;stroke-width:1.5;"/>
   </g>
   <g id="line2d_104">
    <path clip-path="url(#p230ea9f048)" d="M 283.073684 210.543158 
L 300.694737 193.035789 
" style="fill:none;stroke:#d62728;stroke-linecap:square;stroke-width:1.5;"/>
   </g>
   <g id="line2d_105">
    <path clip-path="url(#p230ea9f048)" d="M 300.694737 193.035789 
L 283.073684 175.528421 
" style="fill:none;stroke:#d62728;stroke-linecap:square;stroke-width:1.5;"/>
   </g>
   <g id="line2d_106">
    <path clip-path="url(#p230ea9f048)" d="M 283.073684 175.528421 
L 318.315789 158.021053 
" style="fill:none;stroke:#d62728;stroke-linecap:square;stroke-width:1.5;"/>
   </g>
   <g id="line2d_107">
    <path clip-path="url(#p230ea9f048)" d="M 318.315789 158.021053 
L 353.557895 123.006316 
" style="fill:none;stroke:#d62728;stroke-linecap:square;stroke-width:1.5;"/>
   </g>
   <g id="line2d_108">
    <path clip-path="url(#p230ea9f048)" d="M 353.557895 123.006316 
L 371.178947 70.484211 
" style="fill:none;stroke:#d62728;stroke-linecap:square;stroke-width:1.5;"/>
   </g>
   <g id="patch_3">
    <path d="M 54 263.065263 
L 54 35.469474 
" style="fill:none;stroke:#000000;stroke-linecap:square;stroke-linejoin:miter;stroke-width:0.8;"/>
   </g>
   <g id="patch_4">
    <path d="M 388.8 263.065263 
L 388.8 35.469474 
" style="fill:none;stroke:#000000;stroke-linecap:square;stroke-linejoin:miter;stroke-width:0.8;"/>
   </g>
   <g id="patch_5">
    <path d="M 54 263.065263 
L 388.8 263.065263 
" style="fill:none;stroke:#000000;stroke-linecap:square;stroke-linejoin:miter;stroke-width:0.8;"/>
   </g>
   <g id="patch_6">
    <path d="M 54 35.469474 
L 388.8 35.469474 
" style="fill:none;stroke:#000000;stroke-linecap:square;stroke-linejoin:miter;stroke-width:0.8;"/>
   </g>
  </g>
 </g>
 <defs>
  <clipPath id="p230ea9f048">
   <rect height="227.595789" width="334.8" x="54" y="35.469474"/>
  </clipPath>
 </defs>
</svg>
